<?xml version="1.0" encoding="UTF-8"?>
<svg version="1.1" xmlns="http://www.w3.org/2000/svg" width="1920" height="1080">
<path d="M0 0 C633.6 0 1267.2 0 1920 0 C1920 356.4 1920 712.8 1920 1080 C1286.4 1080 652.8 1080 0 1080 C0 723.6 0 367.2 0 0 Z " fill="#E9E9EA" transform="translate(0,0)"/>
<path d="M0 0 C49.69230769 0 49.69230769 0 56.5 6.375 C57.1290625 6.93960937 57.758125 7.50421875 58.40625 8.0859375 C62.82228386 13.38950758 62.58559137 19.43570961 62 26 C60.26928406 32.21021602 56.99720234 35.26236647 52 39 C52.67546875 39.37511719 53.3509375 39.75023437 54.046875 40.13671875 C61.73721913 44.54866473 66.11883915 48.35651746 69 57 C69.98385963 64.13963001 68.58044024 71.58584033 64.93359375 77.82421875 C60.71869384 83.34671138 54.60221683 86.28232743 48 88 C44.3026156 88.26647049 40.61935298 88.23300952 36.9140625 88.1953125 C35.97651123 88.19329834 35.03895996 88.19128418 34.07299805 88.18920898 C30.59028185 88.17879096 27.10763571 88.15086852 23.625 88.125 C11.930625 88.063125 11.930625 88.063125 0 88 C0 58.96 0 29.92 0 0 Z " fill="#3D73EC" transform="translate(335,500)"/>
<path d="M0 0 C7.59 -0.0825 15.18 -0.165 23 -0.25 C25.38089844 -0.28641602 27.76179687 -0.32283203 30.21484375 -0.36035156 C32.12238669 -0.37204459 34.02993968 -0.38223496 35.9375 -0.390625 C37.39833008 -0.4213208 37.39833008 -0.4213208 38.88867188 -0.45263672 C45.7350749 -0.45610853 51.41571636 0.59228701 56.52270508 5.44769287 C61.50080089 11.16207772 62.50494621 15.50088857 62.38671875 22.94921875 C61.67310229 28.57885971 58.91665064 32.2476337 54.8125 36 C53 37 53 37 51 37 C52.3705937 39.74118741 53.88512085 39.89379479 56.6875 41.0625 C62.39248753 43.91090124 65.86116283 46.88426246 68 53 C68.95611297 60.37999701 69.51485926 68.7977574 65.3828125 75.328125 C59.32254012 82.65523398 52.91024329 86.32142613 43.33059692 87.26213074 C40.53598684 87.34367205 37.75630665 87.33851034 34.9609375 87.29296875 C34.06673096 87.28994751 33.17252441 87.28692627 32.2512207 87.28381348 C28.95902717 87.26829613 25.66700011 87.22641443 22.375 87.1875 C11.299375 87.0946875 11.299375 87.0946875 0 87 C0 58.29 0 29.58 0 0 Z " fill="#3C73EC" transform="translate(875,672)"/>
<path d="M0 0 C1.6045556 0.14148989 3.20863767 0.28835686 4.8125 0.4375 C5.70582031 0.51871094 6.59914063 0.59992187 7.51953125 0.68359375 C10 1 10 1 13 2 C12.58539598 7.28620124 11.71677318 10.17390997 8 14 C7.01 14.66 6.02 15.32 5 16 C6.34704519 19.48624039 6.34704519 19.48624039 8.05078125 22.8046875 C10.34672539 28.11464885 9.6351064 34.89621006 8 40.3125 C2.65606306 47.49341526 -3.14051529 51.49533208 -12 53 C-16.6631668 53.49060401 -21.31567457 53.80425729 -26 54 C-26.25030977 56.41619823 -26.25030977 56.41619823 -26 59 C-22.68928297 61.20714469 -21.62749569 61.24879604 -17.7734375 61.2734375 C-16.22462891 61.304375 -16.22462891 61.304375 -14.64453125 61.3359375 C-12.48835808 61.36169823 -10.33208259 61.38009361 -8.17578125 61.390625 C-0.85675168 61.55387473 6.00634093 62.34526617 11.61962891 67.48217773 C15.75090703 72.21188472 16.35676251 76.25613117 16.27734375 82.30078125 C15.6796303 88.11796429 13.35299086 92.43885671 9.5625 96.8125 C-2.22688128 105.15486316 -19.19994617 104.59675011 -32.8359375 102.375 C-38.77352998 100.69991094 -43.01788643 98.15580776 -46.78515625 93.21875 C-48.80104388 89.53700024 -49.41518421 86.16781068 -49 82 C-47.33243074 77.83107685 -44.7093916 75.47292773 -41 73 C-38.1875 72.25 -38.1875 72.25 -36 72 C-36.804375 71.05125 -37.60875 70.1025 -38.4375 69.125 C-41.47650411 65.54053362 -42.51495027 62.98091614 -42.48828125 58.109375 C-41.6951534 54.68306267 -39.50348096 53.14320512 -36.82421875 51.03125 C-35 50 -35 50 -32 50 C-33.11375 48.948125 -33.11375 48.948125 -34.25 47.875 C-40.93945142 40.8814826 -42.32846926 35.59231197 -42.203125 26.16015625 C-41.81379101 20.10301782 -39.42586935 17.22627543 -35.125 13.25 C-29.51522151 8.36619285 -24.74808386 7.6938848 -17.5625 7.8125 C-16.82451172 7.81314453 -16.08652344 7.81378906 -15.32617188 7.81445312 C-11.11605105 7.84813409 -7.14546633 8.17879035 -3 9 C-2.01 6.03 -1.02 3.06 0 0 Z " fill="#3E74EC" transform="translate(1147,684)"/>
<path d="M0 0 C1.6045556 0.14148989 3.20863767 0.28835686 4.8125 0.4375 C5.70582031 0.51871094 6.59914063 0.59992187 7.51953125 0.68359375 C10 1 10 1 13 2 C12.58539598 7.28620124 11.71677318 10.17390997 8 14 C7.01 14.66 6.02 15.32 5 16 C6.34704519 19.48624039 6.34704519 19.48624039 8.05078125 22.8046875 C10.34672539 28.11464885 9.6351064 34.89621006 8 40.3125 C2.65606306 47.49341526 -3.14051529 51.49533208 -12 53 C-16.6631668 53.49060401 -21.31567457 53.80425729 -26 54 C-26.25030977 56.41619823 -26.25030977 56.41619823 -26 59 C-22.68928297 61.20714469 -21.62749569 61.24879604 -17.7734375 61.2734375 C-16.22462891 61.304375 -16.22462891 61.304375 -14.64453125 61.3359375 C-12.48835808 61.36169823 -10.33208259 61.38009361 -8.17578125 61.390625 C-0.85675168 61.55387473 6.00634093 62.34526617 11.61962891 67.48217773 C15.75090703 72.21188472 16.35676251 76.25613117 16.27734375 82.30078125 C15.6796303 88.11796429 13.35299086 92.43885671 9.5625 96.8125 C-2.22688128 105.15486316 -19.19994617 104.59675011 -32.8359375 102.375 C-38.77352998 100.69991094 -43.01788643 98.15580776 -46.78515625 93.21875 C-48.80104388 89.53700024 -49.41518421 86.16781068 -49 82 C-47.33243074 77.83107685 -44.7093916 75.47292773 -41 73 C-38.1875 72.25 -38.1875 72.25 -36 72 C-36.804375 71.05125 -37.60875 70.1025 -38.4375 69.125 C-41.47650411 65.54053362 -42.51495027 62.98091614 -42.48828125 58.109375 C-41.6951534 54.68306267 -39.50348096 53.14320512 -36.82421875 51.03125 C-35 50 -35 50 -32 50 C-33.11375 48.948125 -33.11375 48.948125 -34.25 47.875 C-40.93945142 40.8814826 -42.32846926 35.59231197 -42.203125 26.16015625 C-41.81379101 20.10301782 -39.42586935 17.22627543 -35.125 13.25 C-29.51522151 8.36619285 -24.74808386 7.6938848 -17.5625 7.8125 C-16.82451172 7.81314453 -16.08652344 7.81378906 -15.32617188 7.81445312 C-11.11605105 7.84813409 -7.14546633 8.17879035 -3 9 C-2.01 6.03 -1.02 3.06 0 0 Z " fill="#3E74EC" transform="translate(607,513)"/>
<path d="M0 0 C1.4025 0.144375 2.805 0.28875 4.25 0.4375 C5.43335938 0.55931641 5.43335938 0.55931641 6.640625 0.68359375 C8.82364639 0.97634993 10.8773182 1.42064419 13 2 C12.63074596 8.15423406 11.17122773 10.72703501 7 15 C6.34 15.33 5.68 15.66 5 16 C5.28875 16.5775 5.5775 17.155 5.875 17.75 C6.24625 18.4925 6.6175 19.235 7 20 C7.34546875 20.5775 7.6909375 21.155 8.046875 21.75 C10.29836379 27.06498993 9.74836202 33.89103294 8.41796875 39.41796875 C5.97229437 45.19154707 1.4641833 48.22685856 -4 51 C-11.1738098 53.67497992 -18.41868782 53.19166239 -26 53 C-26 54.98 -26 56.96 -26 59 C-22.92263558 60.78097866 -20.65344444 61.25685576 -17.11328125 61.30859375 C-16.17419922 61.33373047 -15.23511719 61.35886719 -14.26757812 61.38476562 C-12.31711752 61.41957226 -10.36659122 61.45089453 -8.41601562 61.47851562 C-1.41702512 61.67412477 5.53889079 62.1847137 11.15625 66.75390625 C11.82140625 67.64916016 11.82140625 67.64916016 12.5 68.5625 C12.9640625 69.16191406 13.428125 69.76132812 13.90625 70.37890625 C17.25320291 75.33956859 16.58734232 81.23459374 16 87 C13.49831752 94.06753348 7.95756013 98.06948286 1.4375 101.25 C-10.08350685 104.79492518 -26.89037682 105.22345242 -37.93359375 100.20703125 C-42.43974565 97.57489337 -45.97580454 94.97012277 -48 90 C-48.6359083 85.94357439 -48.92954126 81.81464231 -47.01953125 78.0859375 C-44.78840539 75.29874643 -42.40092723 73.13364241 -39 72 C-38.01 72 -37.02 72 -36 72 C-36.433125 71.50371094 -36.86625 71.00742187 -37.3125 70.49609375 C-40.14062794 67.04603953 -41.86725947 64.78316915 -42.625 60.3125 C-41.88025739 56.36536418 -40.94886165 54.71605679 -38 52 C-34.75 50.6875 -34.75 50.6875 -32 50 C-32.47050781 49.49210937 -32.94101562 48.98421875 -33.42578125 48.4609375 C-40.01271981 41.17848369 -42.65778103 36.21423617 -42.41796875 26.19921875 C-41.64043762 20.24783558 -38.81867108 16.77081132 -34.625 12.6875 C-28.41814739 8.69738047 -23.62909134 7.54493735 -16.375 7.75 C-15.26898437 7.75773437 -15.26898437 7.75773437 -14.140625 7.765625 C-10.31762906 7.82043498 -6.71672748 8.08918141 -3 9 C-2.01 6.03 -1.02 3.06 0 0 Z " fill="#3E74EC" transform="translate(889,342)"/>
<path d="M0 0 C5.61 0 11.22 0 17 0 C17 30.69 17 61.38 17 93 C11.39 93 5.78 93 0 93 C-0.495 89.04 -0.495 89.04 -1 85 C-1.721875 85.763125 -2.44375 86.52625 -3.1875 87.3125 C-9.16759041 93.02680861 -13.89617845 94.39737688 -22.04272461 94.45092773 C-28.66670284 94.28108214 -33.13919993 92.44286212 -38 88 C-47.06901367 77.37846207 -47.95626837 64.49704495 -47 51 C-45.14036986 41.36577154 -40.81480922 34.19984177 -32.75 28.5625 C-26.05624506 24.75923015 -17.50587976 24.80871946 -10.1484375 26.75390625 C-4.52513951 29.08931502 -4.52513951 29.08931502 -2.765625 32.140625 C-2.51296875 32.75421875 -2.2603125 33.3678125 -2 34 C-1.34 34 -0.68 34 0 34 C0 22.78 0 11.56 0 0 Z " fill="#3E74EC" transform="translate(1325,666)"/>
<path d="M0 0 C5.61 0 11.22 0 17 0 C17 30.69 17 61.38 17 93 C11.39 93 5.78 93 0 93 C-0.495 89.04 -0.495 89.04 -1 85 C-1.721875 85.763125 -2.44375 86.52625 -3.1875 87.3125 C-9.16759041 93.02680861 -13.89617845 94.39737688 -22.04272461 94.45092773 C-28.66670284 94.28108214 -33.13919993 92.44286212 -38 88 C-47.06901367 77.37846207 -47.95626837 64.49704495 -47 51 C-45.14036986 41.36577154 -40.81480922 34.19984177 -32.75 28.5625 C-26.05624506 24.75923015 -17.50587976 24.80871946 -10.1484375 26.75390625 C-4.52513951 29.08931502 -4.52513951 29.08931502 -2.765625 32.140625 C-2.51296875 32.75421875 -2.2603125 33.3678125 -2 34 C-1.34 34 -0.68 34 0 34 C0 22.78 0 11.56 0 0 Z " fill="#3E74EC" transform="translate(1139,495)"/>
<path d="M0 0 C5.28 0 10.56 0 16 0 C16 30.36 16 60.72 16 92 C10.72 92 5.44 92 0 92 C0 89.03 0 86.06 0 83 C-0.70125 83.7425 -1.4025 84.485 -2.125 85.25 C-9.301286 92.11427356 -14.79959051 93.37913272 -24.484375 93.26953125 C-32.15065571 92.68178306 -36.34393255 89.16135654 -41.359375 83.5859375 C-46.39678644 75.64601756 -47.6415145 68.29278526 -47.5 59 C-47.51546875 57.98421875 -47.5309375 56.9684375 -47.546875 55.921875 C-47.4960341 46.00789865 -44.825424 37.90344096 -37.89453125 30.6953125 C-31.53433993 25.0039248 -25.72873505 24.40926221 -17.2734375 24.6796875 C-9.87379315 25.40375771 -6.2380464 28.54425257 0 33 C0 22.11 0 11.22 0 0 Z " fill="#3C73EC" transform="translate(786,496)"/>
<path d="M0 0 C4.00013436 2.33341171 6.26987906 4.86397687 8.359375 9.04296875 C9.019375 9.37296875 9.679375 9.70296875 10.359375 10.04296875 C10.6378125 8.96015625 10.6378125 8.96015625 10.921875 7.85546875 C13.31099085 3.18111165 17.45119252 0.67902958 22.359375 -0.95703125 C37.68817376 -2.22988524 37.68817376 -2.22988524 43.84375 2.48046875 C48.77960984 7.56898404 50.49009139 13.23354705 50.47290039 20.17871094 C50.47278709 21.70984528 50.47278709 21.70984528 50.47267151 23.27191162 C50.46751022 24.36682922 50.46234894 25.46174683 50.45703125 26.58984375 C50.4556163 27.71618225 50.45420135 28.84252075 50.45274353 30.00299072 C50.44714699 33.5996771 50.4345951 37.19630119 50.421875 40.79296875 C50.41685955 43.23176993 50.41229672 45.67057209 50.40820312 48.109375 C50.39717869 54.08726358 50.3799164 60.0651056 50.359375 66.04296875 C44.749375 66.04296875 39.139375 66.04296875 33.359375 66.04296875 C33.3500293 64.60985352 33.34068359 63.17673828 33.33105469 61.70019531 C33.2911927 56.38477455 33.22544383 51.06993489 33.15185547 45.75488281 C33.12362396 43.45417748 33.10242034 41.15337476 33.08837891 38.85253906 C33.06698014 35.54571596 33.02034392 32.24006649 32.96875 28.93359375 C32.96752136 27.90429749 32.96629272 26.87500122 32.96502686 25.81451416 C32.93281488 20.23981664 32.93281488 20.23981664 30.47143555 15.39770508 C26.62778573 12.93227763 22.74051997 13.21218437 18.359375 14.04296875 C14.93681248 16.60989064 13.01690723 19.14752779 11.359375 23.04296875 C11.03735084 25.1793083 11.03735084 25.1793083 11.04052734 27.44433594 C11.02065765 28.30492615 11.00078796 29.16551636 10.98031616 30.05218506 C10.96298935 31.43207611 10.96298935 31.43207611 10.9453125 32.83984375 C10.92594635 33.78861389 10.9065802 34.73738403 10.8866272 35.71490479 C10.82691841 38.74083508 10.78048067 41.76680359 10.734375 44.79296875 C10.69618723 46.84637062 10.65713503 48.89975661 10.6171875 50.953125 C10.52122392 55.98294371 10.43716054 61.0128374 10.359375 66.04296875 C4.749375 66.04296875 -0.860625 66.04296875 -6.640625 66.04296875 C-6.6499707 64.60985352 -6.65931641 63.17673828 -6.66894531 61.70019531 C-6.7088073 56.38477455 -6.77455617 51.06993489 -6.84814453 45.75488281 C-6.87637604 43.45417748 -6.89757966 41.15337476 -6.91162109 38.85253906 C-6.93301986 35.54571596 -6.97965608 32.24006649 -7.03125 28.93359375 C-7.03247864 27.90429749 -7.03370728 26.87500122 -7.03497314 25.81451416 C-7.06718512 20.23981664 -7.06718512 20.23981664 -9.52856445 15.39770508 C-13.37535737 12.93026156 -17.25599636 13.21863014 -21.640625 14.04296875 C-25.5047756 16.86057856 -27.25363608 19.53356331 -28.640625 24.04296875 C-28.96782756 27.26591875 -29.01280158 30.48102684 -29.0546875 33.71875 C-29.07405365 34.64390915 -29.0934198 35.5690683 -29.1133728 36.52226257 C-29.17297754 39.46657192 -29.21947748 42.41092077 -29.265625 45.35546875 C-29.30382236 47.3561365 -29.34287512 49.35678811 -29.3828125 51.35742188 C-29.47866341 56.25247255 -29.562765 61.1476002 -29.640625 66.04296875 C-35.250625 66.04296875 -40.860625 66.04296875 -46.640625 66.04296875 C-46.640625 44.26296875 -46.640625 22.48296875 -46.640625 0.04296875 C-41.360625 0.04296875 -36.080625 0.04296875 -30.640625 0.04296875 C-30.640625 3.01296875 -30.640625 5.98296875 -30.640625 9.04296875 C-29.980625 8.32109375 -29.320625 7.59921875 -28.640625 6.85546875 C-20.53098303 -0.9853453 -11.23547852 -4.07202994 0 0 Z " fill="#3E74EC" transform="translate(1412.640625,521.95703125)"/>
<path d="M0 0 C8.0829313 4.97053821 12.13488094 10.99473813 15.3515625 19.87890625 C17.72111481 31.40459274 16.49383908 42.26315075 10.7890625 52.49609375 C6.78807176 58.52031276 0.74677816 62.96127924 -6.265625 64.88671875 C-17.86410216 66.46680115 -28.16310526 66.38648583 -37.9609375 59.25390625 C-44.21417168 53.71660586 -47.6355003 47.50882217 -48.9609375 39.25390625 C-49.63193774 27.2404212 -49.46389197 16.64472857 -41.48828125 6.93359375 C-39.43752613 4.67828761 -37.52523848 2.92368363 -34.9609375 1.25390625 C-34.40664063 0.88265625 -33.85234375 0.51140625 -33.28125 0.12890625 C-23.97477709 -5.08561554 -9.45150219 -4.66079232 0 0 Z " fill="#3D74EC" transform="translate(463.9609375,694.74609375)"/>
<path d="M0 0 C0.83337891 0.55494141 0.83337891 0.55494141 1.68359375 1.12109375 C3.04484375 1.95640625 3.04484375 1.95640625 4.43359375 2.80859375 C11.15137222 9.71297718 12.85840333 16.96929717 12.80859375 26.30859375 C12.81439453 27.41364258 12.81439453 27.41364258 12.8203125 28.54101562 C12.81027866 33.99440884 12.81027866 33.99440884 11.68359375 35.12109375 C10.33264393 35.21378374 8.97692284 35.23856701 7.62280273 35.23461914 C6.76198593 35.23454361 5.90116913 35.23446808 5.01426697 35.23439026 C4.07885574 35.22922897 3.14344452 35.22406769 2.1796875 35.21875 C1.22667252 35.21733505 0.27365753 35.2159201 -0.70823669 35.21446228 C-3.7651579 35.20884527 -6.82200702 35.19628991 -9.87890625 35.18359375 C-11.94596249 35.17858094 -14.01301987 35.17401766 -16.08007812 35.16992188 C-21.15888213 35.15887031 -26.23763195 35.1415943 -31.31640625 35.12109375 C-30.87877957 36.56135544 -30.42997992 37.99822499 -29.9765625 39.43359375 C-29.727854 40.23410156 -29.47914551 41.03460938 -29.22290039 41.859375 C-27.67569007 45.71969184 -25.00094804 48.27882286 -21.31640625 50.12109375 C-15.67975664 50.63581774 -10.86156253 50.90722589 -5.75390625 48.30859375 C-3.37883989 46.25654102 -3.37883989 46.25654102 -1.69140625 44.30859375 C-1.01078125 43.72078125 -1.01078125 43.72078125 -0.31640625 43.12109375 C2.91389072 43.59246756 5.22209184 44.92111751 7.93359375 46.68359375 C8.64 47.13863281 9.34640625 47.59367187 10.07421875 48.0625 C10.6053125 48.41183594 11.13640625 48.76117188 11.68359375 49.12109375 C9.67791608 55.3204611 6.35413043 59.48700506 0.62109375 62.43359375 C-8.15271246 66.55120181 -19.68548246 66.7743769 -28.921875 64.0625 C-37.59776867 60.00495277 -43.22479858 54.61016022 -46.75390625 45.68359375 C-49.74169515 35.46561438 -49.99878039 23.4172686 -45.6953125 13.55078125 C-41.60790217 6.34860213 -36.39487384 1.05104999 -28.64453125 -2.06640625 C-19.55690195 -4.28498242 -8.34342617 -4.70029272 0 0 Z " fill="#3E74EC" transform="translate(1011.31640625,352.87890625)"/>
<path d="M0 0 C6.54516305 3.64475746 10.94788199 7.90292186 13.81640625 14.921875 C14.96394594 19.08950867 15.0070814 22.82926411 14.9375 27.125 C14.93685547 27.90037109 14.93621094 28.67574219 14.93554688 29.47460938 C14.890687 35.171813 14.890687 35.171813 13.75 36.3125 C12.39905018 36.40518999 11.04332909 36.42997326 9.68920898 36.42602539 C8.82839218 36.42594986 7.96757538 36.42587433 7.08067322 36.42579651 C6.14526199 36.42063522 5.20985077 36.41547394 4.24609375 36.41015625 C3.29307877 36.4087413 2.34006378 36.40732635 1.35816956 36.40586853 C-1.69875165 36.40025152 -4.75560077 36.38769616 -7.8125 36.375 C-9.87955624 36.36998719 -11.94661362 36.36542391 -14.01367188 36.36132812 C-19.09247588 36.35027656 -24.1712257 36.33300055 -29.25 36.3125 C-28.68307776 38.0886553 -28.09577025 39.85831206 -27.5 41.625 C-27.17515625 42.61113281 -26.8503125 43.59726562 -26.515625 44.61328125 C-25.13474205 47.55831248 -24.00799127 48.66056044 -21.25 50.3125 C-15.65143723 52.24614015 -9.31465332 52.06328302 -3.8125 50.0625 C-1.30701339 48.35143598 0.15903913 46.87571474 1.75 44.3125 C6.77692063 44.76949278 9.89896261 47.30491748 13.75 50.3125 C12.83288023 55.11947259 10.29312327 58.04309441 6.75 61.3125 C-2.78578119 67.32184135 -14.51839823 67.98290779 -25.4140625 65.62890625 C-33.75654607 62.51661749 -39.01923784 57.51490223 -43.20703125 49.75390625 C-47.37602348 39.99502931 -48.01552916 28.42757865 -44.625 18.3125 C-40.60082349 8.99261899 -35.34154015 3.83479794 -26.25 -0.6875 C-18.81361937 -3.16629354 -7.29181587 -3.10716553 0 0 Z " fill="#3E74EC" transform="translate(1200.25,351.6875)"/>
<path d="M0 0 C5.86371192 3.9949335 10.06867562 9.54730375 12.046875 16.39453125 C12.40080002 19.53385644 12.37868762 22.61463205 12.296875 25.76953125 C12.29171875 26.58808594 12.2865625 27.40664063 12.28125 28.25 C12.20178571 34.23962054 12.20178571 34.23962054 11.046875 35.39453125 C7.94436299 35.4832726 4.8641938 35.5097158 1.76171875 35.4921875 C0.83089981 35.49077255 -0.09991913 35.4893576 -1.0589447 35.48789978 C-4.04453691 35.48228297 -7.03005529 35.46972765 -10.015625 35.45703125 C-12.03450413 35.45201841 -14.05338443 35.44745513 -16.07226562 35.44335938 C-21.03258072 35.43230808 -25.99284032 35.4150322 -30.953125 35.39453125 C-30.51521239 37.01055671 -30.06490812 38.6232278 -29.609375 40.234375 C-29.35994141 41.132771 -29.11050781 42.03116699 -28.85351562 42.95678711 C-27.63415802 46.25811186 -25.97083851 47.65934598 -22.953125 49.39453125 C-18.32715282 50.93652198 -13.78412666 50.90523714 -8.953125 50.39453125 C-5.04236575 48.40484672 -3.37623402 47.02919479 -0.953125 43.39453125 C4.07379563 43.85152403 7.19583761 46.38694873 11.046875 49.39453125 C10.93190382 53.1885801 9.59404742 55.25072139 7.109375 57.95703125 C-1.06977484 65.47922127 -10.05151058 66.18725639 -20.7265625 65.78125 C-25.78858969 65.42919589 -29.69942442 64.17227107 -33.953125 61.39453125 C-34.571875 61.05550781 -35.190625 60.71648438 -35.828125 60.3671875 C-41.5377768 56.90940268 -45.58350664 50.92356247 -47.51098633 44.54980469 C-48.37846795 40.32113117 -48.22297519 36.00897518 -48.265625 31.70703125 C-48.29462891 30.75119141 -48.32363281 29.79535156 -48.35351562 28.81054688 C-48.41302914 22.09467555 -47.16725776 17.27515858 -43.953125 11.39453125 C-43.39625 10.34265625 -42.839375 9.29078125 -42.265625 8.20703125 C-32.46688775 -3.71035189 -13.78467099 -6.72596877 0 0 Z " fill="#3E74EC" transform="translate(1405.953125,694.60546875)"/>
<path d="M0 0 C5.86371192 3.9949335 10.06867562 9.54730375 12.046875 16.39453125 C12.40080002 19.53385644 12.37868762 22.61463205 12.296875 25.76953125 C12.29171875 26.58808594 12.2865625 27.40664063 12.28125 28.25 C12.20178571 34.23962054 12.20178571 34.23962054 11.046875 35.39453125 C7.94436299 35.4832726 4.8641938 35.5097158 1.76171875 35.4921875 C0.83089981 35.49077255 -0.09991913 35.4893576 -1.0589447 35.48789978 C-4.04453691 35.48228297 -7.03005529 35.46972765 -10.015625 35.45703125 C-12.03450413 35.45201841 -14.05338443 35.44745513 -16.07226562 35.44335938 C-21.03258072 35.43230808 -25.99284032 35.4150322 -30.953125 35.39453125 C-30.51521239 37.01055671 -30.06490812 38.6232278 -29.609375 40.234375 C-29.35994141 41.132771 -29.11050781 42.03116699 -28.85351562 42.95678711 C-27.63415802 46.25811186 -25.97083851 47.65934598 -22.953125 49.39453125 C-18.32715282 50.93652198 -13.78412666 50.90523714 -8.953125 50.39453125 C-5.04236575 48.40484672 -3.37623402 47.02919479 -0.953125 43.39453125 C4.07379563 43.85152403 7.19583761 46.38694873 11.046875 49.39453125 C10.93190382 53.1885801 9.59404742 55.25072139 7.109375 57.95703125 C-1.06977484 65.47922127 -10.05151058 66.18725639 -20.7265625 65.78125 C-25.78858969 65.42919589 -29.69942442 64.17227107 -33.953125 61.39453125 C-34.571875 61.05550781 -35.190625 60.71648438 -35.828125 60.3671875 C-41.5377768 56.90940268 -45.58350664 50.92356247 -47.51098633 44.54980469 C-48.37846795 40.32113117 -48.22297519 36.00897518 -48.265625 31.70703125 C-48.29462891 30.75119141 -48.32363281 29.79535156 -48.35351562 28.81054688 C-48.41302914 22.09467555 -47.16725776 17.27515858 -43.953125 11.39453125 C-43.39625 10.34265625 -42.839375 9.29078125 -42.265625 8.20703125 C-32.46688775 -3.71035189 -13.78467099 -6.72596877 0 0 Z " fill="#3E74EC" transform="translate(816.953125,694.60546875)"/>
<path d="M0 0 C5.86371192 3.9949335 10.06867562 9.54730375 12.046875 16.39453125 C12.40080002 19.53385644 12.37868762 22.61463205 12.296875 25.76953125 C12.29171875 26.58808594 12.2865625 27.40664063 12.28125 28.25 C12.20178571 34.23962054 12.20178571 34.23962054 11.046875 35.39453125 C7.94436299 35.4832726 4.8641938 35.5097158 1.76171875 35.4921875 C0.83089981 35.49077255 -0.09991913 35.4893576 -1.0589447 35.48789978 C-4.04453691 35.48228297 -7.03005529 35.46972765 -10.015625 35.45703125 C-12.03450413 35.45201841 -14.05338443 35.44745513 -16.07226562 35.44335938 C-21.03258072 35.43230808 -25.99284032 35.4150322 -30.953125 35.39453125 C-30.51521239 37.01055671 -30.06490812 38.6232278 -29.609375 40.234375 C-29.35994141 41.132771 -29.11050781 42.03116699 -28.85351562 42.95678711 C-27.63415802 46.25811186 -25.97083851 47.65934598 -22.953125 49.39453125 C-18.32715282 50.93652198 -13.78412666 50.90523714 -8.953125 50.39453125 C-5.04236575 48.40484672 -3.37623402 47.02919479 -0.953125 43.39453125 C4.07379563 43.85152403 7.19583761 46.38694873 11.046875 49.39453125 C10.93190382 53.1885801 9.59404742 55.25072139 7.109375 57.95703125 C-1.06977484 65.47922127 -10.05151058 66.18725639 -20.7265625 65.78125 C-25.78858969 65.42919589 -29.69942442 64.17227107 -33.953125 61.39453125 C-34.571875 61.05550781 -35.190625 60.71648438 -35.828125 60.3671875 C-41.5377768 56.90940268 -45.58350664 50.92356247 -47.51098633 44.54980469 C-48.37846795 40.32113117 -48.22297519 36.00897518 -48.265625 31.70703125 C-48.29462891 30.75119141 -48.32363281 29.79535156 -48.35351562 28.81054688 C-48.41302914 22.09467555 -47.16725776 17.27515858 -43.953125 11.39453125 C-43.39625 10.34265625 -42.839375 9.29078125 -42.265625 8.20703125 C-32.46688775 -3.71035189 -13.78467099 -6.72596877 0 0 Z " fill="#3E74EC" transform="translate(606.953125,694.60546875)"/>
<path d="M0 0 C5.86371192 3.9949335 10.06867562 9.54730375 12.046875 16.39453125 C12.40080002 19.53385644 12.37868762 22.61463205 12.296875 25.76953125 C12.29171875 26.58808594 12.2865625 27.40664063 12.28125 28.25 C12.20178571 34.23962054 12.20178571 34.23962054 11.046875 35.39453125 C7.94436299 35.4832726 4.8641938 35.5097158 1.76171875 35.4921875 C0.83089981 35.49077255 -0.09991913 35.4893576 -1.0589447 35.48789978 C-4.04453691 35.48228297 -7.03005529 35.46972765 -10.015625 35.45703125 C-12.03450413 35.45201841 -14.05338443 35.44745513 -16.07226562 35.44335938 C-21.03258072 35.43230808 -25.99284032 35.4150322 -30.953125 35.39453125 C-30.51521239 37.01055671 -30.06490812 38.6232278 -29.609375 40.234375 C-29.35994141 41.132771 -29.11050781 42.03116699 -28.85351562 42.95678711 C-27.63415802 46.25811186 -25.97083851 47.65934598 -22.953125 49.39453125 C-18.32715282 50.93652198 -13.78412666 50.90523714 -8.953125 50.39453125 C-5.04236575 48.40484672 -3.37623402 47.02919479 -0.953125 43.39453125 C4.07379563 43.85152403 7.19583761 46.38694873 11.046875 49.39453125 C10.93190382 53.1885801 9.59404742 55.25072139 7.109375 57.95703125 C-1.06977484 65.47922127 -10.05151058 66.18725639 -20.7265625 65.78125 C-25.78858969 65.42919589 -29.69942442 64.17227107 -33.953125 61.39453125 C-34.571875 61.05550781 -35.190625 60.71648438 -35.828125 60.3671875 C-41.5377768 56.90940268 -45.58350664 50.92356247 -47.51098633 44.54980469 C-48.37846795 40.32113117 -48.22297519 36.00897518 -48.265625 31.70703125 C-48.29462891 30.75119141 -48.32363281 29.79535156 -48.35351562 28.81054688 C-48.41302914 22.09467555 -47.16725776 17.27515858 -43.953125 11.39453125 C-43.39625 10.34265625 -42.839375 9.29078125 -42.265625 8.20703125 C-32.46688775 -3.71035189 -13.78467099 -6.72596877 0 0 Z " fill="#3E74EC" transform="translate(1269.953125,523.60546875)"/>
<path d="M0 0 C5.86371192 3.9949335 10.06867562 9.54730375 12.046875 16.39453125 C12.40080002 19.53385644 12.37868762 22.61463205 12.296875 25.76953125 C12.29171875 26.58808594 12.2865625 27.40664063 12.28125 28.25 C12.20178571 34.23962054 12.20178571 34.23962054 11.046875 35.39453125 C7.94436299 35.4832726 4.8641938 35.5097158 1.76171875 35.4921875 C0.83089981 35.49077255 -0.09991913 35.4893576 -1.0589447 35.48789978 C-4.04453691 35.48228297 -7.03005529 35.46972765 -10.015625 35.45703125 C-12.03450413 35.45201841 -14.05338443 35.44745513 -16.07226562 35.44335938 C-21.03258072 35.43230808 -25.99284032 35.4150322 -30.953125 35.39453125 C-30.51521239 37.01055671 -30.06490812 38.6232278 -29.609375 40.234375 C-29.35994141 41.132771 -29.11050781 42.03116699 -28.85351562 42.95678711 C-27.63415802 46.25811186 -25.97083851 47.65934598 -22.953125 49.39453125 C-18.32715282 50.93652198 -13.78412666 50.90523714 -8.953125 50.39453125 C-5.04236575 48.40484672 -3.37623402 47.02919479 -0.953125 43.39453125 C4.07379563 43.85152403 7.19583761 46.38694873 11.046875 49.39453125 C10.93190382 53.1885801 9.59404742 55.25072139 7.109375 57.95703125 C-1.06977484 65.47922127 -10.05151058 66.18725639 -20.7265625 65.78125 C-25.78858969 65.42919589 -29.69942442 64.17227107 -33.953125 61.39453125 C-34.571875 61.05550781 -35.190625 60.71648438 -35.828125 60.3671875 C-41.5377768 56.90940268 -45.58350664 50.92356247 -47.51098633 44.54980469 C-48.37846795 40.32113117 -48.22297519 36.00897518 -48.265625 31.70703125 C-48.29462891 30.75119141 -48.32363281 29.79535156 -48.35351562 28.81054688 C-48.41302914 22.09467555 -47.16725776 17.27515858 -43.953125 11.39453125 C-43.39625 10.34265625 -42.839375 9.29078125 -42.265625 8.20703125 C-32.46688775 -3.71035189 -13.78467099 -6.72596877 0 0 Z " fill="#3E74EC" transform="translate(865.953125,523.60546875)"/>
<path d="M0 0 C5.86371192 3.9949335 10.06867562 9.54730375 12.046875 16.39453125 C12.40080002 19.53385644 12.37868762 22.61463205 12.296875 25.76953125 C12.29171875 26.58808594 12.2865625 27.40664063 12.28125 28.25 C12.20178571 34.23962054 12.20178571 34.23962054 11.046875 35.39453125 C7.94436299 35.4832726 4.8641938 35.5097158 1.76171875 35.4921875 C0.83089981 35.49077255 -0.09991913 35.4893576 -1.0589447 35.48789978 C-4.04453691 35.48228297 -7.03005529 35.46972765 -10.015625 35.45703125 C-12.03450413 35.45201841 -14.05338443 35.44745513 -16.07226562 35.44335938 C-21.03258072 35.43230808 -25.99284032 35.4150322 -30.953125 35.39453125 C-30.51521239 37.01055671 -30.06490812 38.6232278 -29.609375 40.234375 C-29.35994141 41.132771 -29.11050781 42.03116699 -28.85351562 42.95678711 C-27.63415802 46.25811186 -25.97083851 47.65934598 -22.953125 49.39453125 C-18.32715282 50.93652198 -13.78412666 50.90523714 -8.953125 50.39453125 C-5.04236575 48.40484672 -3.37623402 47.02919479 -0.953125 43.39453125 C4.07379563 43.85152403 7.19583761 46.38694873 11.046875 49.39453125 C10.93190382 53.1885801 9.59404742 55.25072139 7.109375 57.95703125 C-1.06977484 65.47922127 -10.05151058 66.18725639 -20.7265625 65.78125 C-25.78858969 65.42919589 -29.69942442 64.17227107 -33.953125 61.39453125 C-34.571875 61.05550781 -35.190625 60.71648437 -35.828125 60.3671875 C-41.5377768 56.90940268 -45.58350664 50.92356247 -47.51098633 44.54980469 C-48.37846795 40.32113117 -48.22297519 36.00897518 -48.265625 31.70703125 C-48.29462891 30.75119141 -48.32363281 29.79535156 -48.35351562 28.81054688 C-48.41302914 22.09467555 -47.16725776 17.27515858 -43.953125 11.39453125 C-43.39625 10.34265625 -42.839375 9.29078125 -42.265625 8.20703125 C-32.46688775 -3.71035189 -13.78467099 -6.72596877 0 0 Z " fill="#3E74EC" transform="translate(791.953125,352.60546875)"/>
<path d="M0 0 C5.39879047 3.03749046 8.77045478 7.46458356 10.625 13.375 C10.94660404 16.30667419 10.99679015 19.22838146 11.0390625 22.17578125 C11.05842865 23.01215622 11.0777948 23.84853119 11.0977478 24.71025085 C11.15730192 27.3692317 11.20383174 30.0282564 11.25 32.6875 C11.28820206 34.49546109 11.32725509 36.30340442 11.3671875 38.11132812 C11.46298345 42.53240698 11.54710331 46.95357101 11.625 51.375 C13.935 51.705 16.245 52.035 18.625 52.375 C18.625 56.335 18.625 60.295 18.625 64.375 C15.70252427 65.83623786 13.06646161 65.6227615 9.8125 65.6875 C8.58917969 65.72488281 7.36585937 65.76226563 6.10546875 65.80078125 C2.0419115 65.30366819 0.45682616 64.27525318 -2.375 61.375 C-3.1875 58.625 -3.1875 58.625 -3.375 56.375 C-4.035 57.096875 -4.695 57.81875 -5.375 58.5625 C-11.02477674 64.04012288 -15.27440334 66.69491529 -23.375 66.9375 C-30.1288094 66.66301363 -35.1973024 65.74431756 -39.9296875 60.7265625 C-42.4693383 57.44079961 -44.07475113 54.57848418 -44.375 50.375 C-44.44847656 49.70597656 -44.52195312 49.03695312 -44.59765625 48.34765625 C-44.95112293 43.04565607 -44.07134608 39.50177459 -40.97265625 35.16015625 C-35.17017357 28.67669761 -27.61722424 27.08401762 -19.375 25.375 C-17.68693702 25.02352648 -15.99937008 24.6696549 -14.3125 24.3125 C-13.62027344 24.17714844 -12.92804688 24.04179688 -12.21484375 23.90234375 C-10.06274898 23.38636986 -10.06274898 23.38636986 -7.375 21.375 C-6.875 17.875 -6.875 17.875 -7.375 14.375 C-11.86662152 11.38058565 -16.10968542 11.65891722 -21.375 12.375 C-23.94654154 13.44199783 -26.16371659 14.67617559 -28.5 16.18359375 C-30.375 17.375 -30.375 17.375 -33.375 18.375 C-33.375 19.035 -33.375 19.695 -33.375 20.375 C-34.365 20.375 -35.355 20.375 -36.375 20.375 C-37.98046875 18.40625 -37.98046875 18.40625 -39.5625 15.875 C-40.09230469 15.0396875 -40.62210938 14.204375 -41.16796875 13.34375 C-41.76544922 12.36921875 -41.76544922 12.36921875 -42.375 11.375 C-39.36729911 4.87186294 -33.67619124 2.182853 -27.375 -0.625 C-19.58702207 -3.22099264 -7.60154212 -3.11559805 0 0 Z " fill="#3E74EC" transform="translate(1336.375,522.625)"/>
<path d="M0 0 C3.98327305 2.99204381 6.72449452 6.69405491 8.6953125 11.2734375 C8.9737854 13.27301025 8.9737854 13.27301025 9.01416016 15.39941406 C9.03402985 16.19994202 9.05389954 17.00046997 9.07437134 17.82525635 C9.08592255 18.67956238 9.09747375 19.53386841 9.109375 20.4140625 C9.12874115 21.29624451 9.1481073 22.17842651 9.1680603 23.08734131 C9.22774098 25.89927566 9.27419533 28.7112512 9.3203125 31.5234375 C9.35850288 33.43230931 9.39755523 35.34116409 9.4375 37.25 C9.53343308 41.92434046 9.61750666 46.59876159 9.6953125 51.2734375 C12.0053125 51.2734375 14.3153125 51.2734375 16.6953125 51.2734375 C17.1903125 57.2134375 17.1903125 57.2134375 17.6953125 63.2734375 C14.39196184 64.37455439 11.79699113 64.47570278 8.3203125 64.5234375 C6.63808594 64.56210937 6.63808594 64.56210937 4.921875 64.6015625 C1.3441227 64.23772328 -0.47967048 63.46727954 -3.3046875 61.2734375 C-4.6171875 58.0859375 -4.6171875 58.0859375 -5.3046875 55.2734375 C-6.0265625 56.0159375 -6.7484375 56.7584375 -7.4921875 57.5234375 C-13.35539877 63.25635518 -16.85820366 65.41789138 -25.1171875 65.5234375 C-26.31988281 65.54921875 -27.52257812 65.575 -28.76171875 65.6015625 C-33.46752659 65.16574347 -36.69019683 63.76269514 -40.16796875 60.5546875 C-40.64621094 59.966875 -41.12445312 59.3790625 -41.6171875 58.7734375 C-42.10832031 58.185625 -42.59945312 57.5978125 -43.10546875 56.9921875 C-46.78238029 51.72234686 -45.78272588 44.37545679 -45.3046875 38.2734375 C-42.85500393 32.20248257 -38.00699953 29.91842527 -32.3046875 27.2734375 C-28.34407248 25.60117782 -24.53348865 25.00701036 -20.3046875 24.3984375 C-15.28018222 23.59226688 -11.98505884 22.8515763 -8.3046875 19.2734375 C-7.47112337 16.72931714 -7.47112337 16.72931714 -8.3046875 14.2734375 C-10.04372207 12.08074173 -11.47559803 11.41190051 -14.22265625 10.953125 C-21.52474315 10.56540357 -28.36808386 12.75634867 -33.9296875 17.5234375 C-34.3834375 18.1009375 -34.8371875 18.6784375 -35.3046875 19.2734375 C-39.01748534 17.82957168 -40.2533318 16.15107358 -42.0546875 12.6484375 C-42.48265625 11.83117187 -42.910625 11.01390625 -43.3515625 10.171875 C-43.66609375 9.54539062 -43.980625 8.91890625 -44.3046875 8.2734375 C-32.99927787 -2.32538403 -14.59358511 -8.06939412 0 0 Z " fill="#3D73EC" transform="translate(675.3046875,694.7265625)"/>
<path d="M0 0 C0.7520874 -0.01023193 1.5041748 -0.02046387 2.27905273 -0.03100586 C8.89581235 0.07264149 14.46608606 1.45683743 19.6875 5.75 C24.36282558 11.49397143 25.32950326 16.17060994 25.38671875 23.3359375 C25.40466995 24.17089752 25.42262115 25.00585754 25.44111633 25.86611938 C25.49499922 28.51486261 25.52904361 31.16342794 25.5625 33.8125 C25.59569259 35.61591005 25.63018404 37.4192967 25.66601562 39.22265625 C25.75071275 43.62747534 25.81762834 48.0322437 25.875 52.4375 C28.185 53.0975 30.495 53.7575 32.875 54.4375 C33.37 60.3775 33.37 60.3775 33.875 66.4375 C28.39254868 68.26498377 21.08611207 68.8944474 15.72265625 66.4609375 C13.42862282 64.63244141 12.03761376 62.86726494 11 60.125 C10.95875 59.568125 10.9175 59.01125 10.875 58.4375 C10.215 58.4375 9.555 58.4375 8.875 58.4375 C8.66875 59.18 8.4625 59.9225 8.25 60.6875 C6.45815834 64.27118332 4.31388682 65.47242182 0.875 67.4375 C-5.14035515 69.44261838 -12.60845421 69.60242384 -18.6484375 67.6015625 C-23.57755638 64.78762107 -27.25701654 60.8262449 -29.125 55.4375 C-29.94742185 49.48403919 -30.03359885 44.35565313 -27.4375 38.875 C-20.76509719 31.84192677 -13.60154602 29.32527182 -4.375 27.3125 C1.30047866 26.06568622 1.30047866 26.06568622 6.875 24.4375 C7.59756829 19.95616426 7.59756829 19.95616426 7.875 15.4375 C1.18056572 13.20602191 -5.3018786 13.6580772 -11.625 16.75 C-14.57474299 18.34458509 -16.85988527 19.96184576 -19.125 22.4375 C-22.94553924 21.16398692 -23.35521375 19.81112475 -25.3125 16.375 C-25.84230469 15.45589844 -26.37210938 14.53679688 -26.91796875 13.58984375 C-27.31628906 12.87957031 -27.71460938 12.16929687 -28.125 11.4375 C-19.15851672 3.72719071 -11.8461918 0.12441702 0 0 Z " fill="#3D73EC" transform="translate(1237.125,691.5625)"/>
<path d="M0 0 C0.7520874 -0.01023193 1.5041748 -0.02046387 2.27905273 -0.03100586 C8.89581235 0.07264149 14.46608606 1.45683743 19.6875 5.75 C24.36282558 11.49397143 25.32950326 16.17060994 25.38671875 23.3359375 C25.40466995 24.17089752 25.42262115 25.00585754 25.44111633 25.86611938 C25.49499922 28.51486261 25.52904361 31.16342794 25.5625 33.8125 C25.59569259 35.61591005 25.63018404 37.4192967 25.66601562 39.22265625 C25.75071275 43.62747534 25.81762834 48.0322437 25.875 52.4375 C28.185 53.0975 30.495 53.7575 32.875 54.4375 C33.37 60.3775 33.37 60.3775 33.875 66.4375 C28.39254868 68.26498377 21.08611207 68.8944474 15.72265625 66.4609375 C13.42862282 64.63244141 12.03761376 62.86726494 11 60.125 C10.95875 59.568125 10.9175 59.01125 10.875 58.4375 C10.215 58.4375 9.555 58.4375 8.875 58.4375 C8.66875 59.18 8.4625 59.9225 8.25 60.6875 C6.45815834 64.27118332 4.31388682 65.47242182 0.875 67.4375 C-5.14035515 69.44261838 -12.60845421 69.60242384 -18.6484375 67.6015625 C-23.57755638 64.78762107 -27.25701654 60.8262449 -29.125 55.4375 C-29.94742185 49.48403919 -30.03359885 44.35565313 -27.4375 38.875 C-20.76509719 31.84192677 -13.60154602 29.32527182 -4.375 27.3125 C1.30047866 26.06568622 1.30047866 26.06568622 6.875 24.4375 C7.59756829 19.95616426 7.59756829 19.95616426 7.875 15.4375 C1.18056572 13.20602191 -5.3018786 13.6580772 -11.625 16.75 C-14.57474299 18.34458509 -16.85988527 19.96184576 -19.125 22.4375 C-22.94553924 21.16398692 -23.35521375 19.81112475 -25.3125 16.375 C-25.84230469 15.45589844 -26.37210938 14.53679688 -26.91796875 13.58984375 C-27.31628906 12.87957031 -27.71460938 12.16929687 -28.125 11.4375 C-19.15851672 3.72719071 -11.8461918 0.12441702 0 0 Z " fill="#3D73EC" transform="translate(697.125,520.5625)"/>
<path d="M0 0 C1.25127686 0.00966797 1.25127686 0.00966797 2.52783203 0.01953125 C8.93028477 0.20934456 14.76925868 0.96545557 19.625 5.5 C24.07451756 11.14808183 25.36645833 15.70597399 25.33203125 22.8125 C25.34715256 23.66682617 25.36227386 24.52115234 25.37785339 25.40136719 C25.42047087 28.1011854 25.42954287 30.79988005 25.4375 33.5 C25.46066461 35.34247725 25.48603401 37.18492817 25.51367188 39.02734375 C25.57626731 43.51832735 25.60880512 48.00861914 25.625 52.5 C27.935 53.16 30.245 53.82 32.625 54.5 C33.9521261 58.4813783 33.69415913 62.35045227 33.625 66.5 C30.70252427 67.96123786 28.06646161 67.7477615 24.8125 67.8125 C23.58917969 67.84988281 22.36585938 67.88726563 21.10546875 67.92578125 C16.13252337 67.31741868 13.87366943 65.0500724 10.8125 61.25 C10.2246875 60.38375 10.2246875 60.38375 9.625 59.5 C8.573125 60.8921875 8.573125 60.8921875 7.5 62.3125 C5.05891423 65.54334881 2.36376563 66.98223919 -1.375 68.5 C-8.9584362 69.49129885 -16.56852455 69.81386817 -22.859375 65 C-27.61826211 60.29017358 -29.51583692 55.7645758 -29.625 49.1875 C-29.54218513 42.90185175 -28.25265707 39.47153992 -23.875 34.875 C-16.7441971 29.43124071 -7.16212904 27.81786166 1.40576172 25.80639648 C4.79843317 25.2313044 4.79843317 25.2313044 7.625 23.5 C7.95838596 20.04187831 7.95838596 20.04187831 7.625 16.5 C3.13795051 13.50863367 -1.1138354 13.90982832 -6.375 14.5 C-10.59863368 15.87711753 -13.77101387 18.00338919 -17.1875 20.8125 C-17.909375 21.369375 -18.63125 21.92625 -19.375 22.5 C-22.80610164 21.35629945 -23.28996564 20.63496691 -25.1875 17.6875 C-25.64769531 17.00042969 -26.10789062 16.31335938 -26.58203125 15.60546875 C-27.375 13.5 -27.375 13.5 -26.73828125 11.4296875 C-25.25070803 9.32406809 -23.81400707 7.97933795 -21.75 6.4375 C-21.11835937 5.95152344 -20.48671875 5.46554687 -19.8359375 4.96484375 C-13.40685972 1.13801174 -7.43332474 -0.05993408 0 0 Z " fill="#3D73EC" transform="translate(983.375,691.5)"/>
<path d="M0 0 C1.25127686 0.00966797 1.25127686 0.00966797 2.52783203 0.01953125 C8.93028477 0.20934456 14.76925868 0.96545557 19.625 5.5 C24.07451756 11.14808183 25.36645833 15.70597399 25.33203125 22.8125 C25.34715256 23.66682617 25.36227386 24.52115234 25.37785339 25.40136719 C25.42047087 28.1011854 25.42954287 30.79988005 25.4375 33.5 C25.46066461 35.34247725 25.48603401 37.18492817 25.51367188 39.02734375 C25.57626731 43.51832735 25.60880512 48.00861914 25.625 52.5 C27.935 53.16 30.245 53.82 32.625 54.5 C33.9521261 58.4813783 33.69415913 62.35045227 33.625 66.5 C30.70252427 67.96123786 28.06646161 67.7477615 24.8125 67.8125 C23.58917969 67.84988281 22.36585938 67.88726563 21.10546875 67.92578125 C16.13252337 67.31741868 13.87366943 65.0500724 10.8125 61.25 C10.2246875 60.38375 10.2246875 60.38375 9.625 59.5 C8.573125 60.8921875 8.573125 60.8921875 7.5 62.3125 C5.05891423 65.54334881 2.36376563 66.98223919 -1.375 68.5 C-8.9584362 69.49129885 -16.56852455 69.81386817 -22.859375 65 C-27.61826211 60.29017358 -29.51583692 55.7645758 -29.625 49.1875 C-29.54218513 42.90185175 -28.25265707 39.47153992 -23.875 34.875 C-16.7441971 29.43124071 -7.16212904 27.81786166 1.40576172 25.80639648 C4.79843317 25.2313044 4.79843317 25.2313044 7.625 23.5 C7.95838596 20.04187831 7.95838596 20.04187831 7.625 16.5 C3.13795051 13.50863367 -1.1138354 13.90982832 -6.375 14.5 C-10.59863368 15.87711753 -13.77101387 18.00338919 -17.1875 20.8125 C-17.909375 21.369375 -18.63125 21.92625 -19.375 22.5 C-22.80610164 21.35629945 -23.28996564 20.63496691 -25.1875 17.6875 C-25.64769531 17.00042969 -26.10789062 16.31335938 -26.58203125 15.60546875 C-27.375 13.5 -27.375 13.5 -26.73828125 11.4296875 C-25.25070803 9.32406809 -23.81400707 7.97933795 -21.75 6.4375 C-21.11835938 5.95152344 -20.48671875 5.46554687 -19.8359375 4.96484375 C-13.40685972 1.13801174 -7.43332474 -0.05993408 0 0 Z " fill="#3D73EC" transform="translate(443.375,520.5)"/>
<path d="M0 0 C1.25127686 0.00966797 1.25127686 0.00966797 2.52783203 0.01953125 C8.93028477 0.20934456 14.76925868 0.96545557 19.625 5.5 C24.07451756 11.14808183 25.36645833 15.70597399 25.33203125 22.8125 C25.34715256 23.66682617 25.36227386 24.52115234 25.37785339 25.40136719 C25.42047087 28.1011854 25.42954287 30.79988005 25.4375 33.5 C25.46066461 35.34247725 25.48603401 37.18492817 25.51367188 39.02734375 C25.57626731 43.51832735 25.60880512 48.00861914 25.625 52.5 C27.935 53.16 30.245 53.82 32.625 54.5 C33.9521261 58.4813783 33.69415913 62.35045227 33.625 66.5 C30.70252427 67.96123786 28.06646161 67.7477615 24.8125 67.8125 C23.58917969 67.84988281 22.36585937 67.88726562 21.10546875 67.92578125 C16.13252337 67.31741868 13.87366943 65.0500724 10.8125 61.25 C10.2246875 60.38375 10.2246875 60.38375 9.625 59.5 C8.573125 60.8921875 8.573125 60.8921875 7.5 62.3125 C5.05891423 65.54334881 2.36376563 66.98223919 -1.375 68.5 C-8.9584362 69.49129885 -16.56852455 69.81386817 -22.859375 65 C-27.61826211 60.29017358 -29.51583692 55.7645758 -29.625 49.1875 C-29.54218513 42.90185175 -28.25265707 39.47153992 -23.875 34.875 C-16.7441971 29.43124071 -7.16212904 27.81786166 1.40576172 25.80639648 C4.79843317 25.2313044 4.79843317 25.2313044 7.625 23.5 C7.95838596 20.04187831 7.95838596 20.04187831 7.625 16.5 C3.13795051 13.50863367 -1.1138354 13.90982832 -6.375 14.5 C-10.59863368 15.87711753 -13.77101387 18.00338919 -17.1875 20.8125 C-17.909375 21.369375 -18.63125 21.92625 -19.375 22.5 C-22.80610164 21.35629945 -23.28996564 20.63496691 -25.1875 17.6875 C-25.64769531 17.00042969 -26.10789062 16.31335938 -26.58203125 15.60546875 C-27.375 13.5 -27.375 13.5 -26.73828125 11.4296875 C-25.25070803 9.32406809 -23.81400707 7.97933795 -21.75 6.4375 C-21.11835937 5.95152344 -20.48671875 5.46554687 -19.8359375 4.96484375 C-13.40685972 1.13801174 -7.43332474 -0.05993408 0 0 Z " fill="#3D73EC" transform="translate(1063.375,349.5)"/>
<path d="M0 0 C5.28 0 10.56 0 16 0 C16 11.55 16 23.1 16 35 C18.64 32.69 21.28 30.38 24 28 C30.61835954 23.84863823 37.41127554 24.12969612 45 25 C50.20253292 26.88970927 54.08798483 30.29597549 57 35 C59.30413003 41.21371508 59.25950487 47.04450671 59.1953125 53.62109375 C59.1924826 54.72099136 59.18965271 55.82088898 59.18673706 56.95411682 C59.1755898 60.44869103 59.15049498 63.94300394 59.125 67.4375 C59.11496316 69.81444941 59.10583854 72.19140286 59.09765625 74.56835938 C59.07566827 80.37900611 59.04117582 86.18945883 59 92 C53.39 92 47.78 92 42 92 C41.99589111 90.60241455 41.99178223 89.2048291 41.98754883 87.76489258 C41.96575948 82.57425168 41.91147089 77.38436902 41.84741211 72.1940918 C41.82423055 69.94872307 41.80983605 67.70324558 41.80444336 65.45776367 C41.7951553 62.22766327 41.75416577 58.99927391 41.70703125 55.76953125 C41.7109639 54.76727005 41.71489655 53.76500885 41.71894836 52.7323761 C41.61998388 47.99352229 41.55453101 45.72706435 38.60986328 41.86621094 C34.98795574 39.27632682 32.75417854 39.33932223 28.4375 39.58984375 C24.69343399 40.21985486 22.71532809 41.35089943 20 44 C17.26211876 49.98729344 16.53835858 54.99791417 16.48828125 61.53125 C16.47033005 62.40777222 16.45237885 63.28429443 16.43388367 64.18737793 C16.38015491 66.95820453 16.34600627 69.72886265 16.3125 72.5 C16.27929379 74.39064826 16.24480112 76.28127439 16.20898438 78.171875 C16.12445045 82.78112765 16.05746209 87.3903336 16 92 C10.72 92 5.44 92 0 92 C0 61.64 0 31.28 0 0 Z " fill="#3D73EC" transform="translate(1494,667)"/>
<path d="M0 0 C5.28 0 10.56 0 16 0 C16 11.55 16 23.1 16 35 C18.64 32.69 21.28 30.38 24 28 C30.61835954 23.84863823 37.41127554 24.12969612 45 25 C50.20253292 26.88970927 54.08798483 30.29597549 57 35 C59.30413003 41.21371508 59.25950487 47.04450671 59.1953125 53.62109375 C59.1924826 54.72099136 59.18965271 55.82088898 59.18673706 56.95411682 C59.1755898 60.44869103 59.15049498 63.94300394 59.125 67.4375 C59.11496316 69.81444941 59.10583854 72.19140286 59.09765625 74.56835938 C59.07566827 80.37900611 59.04117582 86.18945883 59 92 C53.39 92 47.78 92 42 92 C41.99589111 90.60241455 41.99178223 89.2048291 41.98754883 87.76489258 C41.96575948 82.57425168 41.91147089 77.38436902 41.84741211 72.1940918 C41.82423055 69.94872307 41.80983605 67.70324558 41.80444336 65.45776367 C41.7951553 62.22766327 41.75416577 58.99927391 41.70703125 55.76953125 C41.7109639 54.76727005 41.71489655 53.76500885 41.71894836 52.7323761 C41.61998388 47.99352229 41.55453101 45.72706435 38.60986328 41.86621094 C34.98795574 39.27632682 32.75417854 39.33932223 28.4375 39.58984375 C24.69343399 40.21985486 22.71532809 41.35089943 20 44 C17.26211876 49.98729344 16.53835858 54.99791417 16.48828125 61.53125 C16.47033005 62.40777222 16.45237885 63.28429443 16.43388367 64.18737793 C16.38015491 66.95820453 16.34600627 69.72886265 16.3125 72.5 C16.27929379 74.39064826 16.24480112 76.28127439 16.20898438 78.171875 C16.12445045 82.78112765 16.05746209 87.3903336 16 92 C10.72 92 5.44 92 0 92 C0 61.64 0 31.28 0 0 Z " fill="#3D73EC" transform="translate(954,496)"/>
<path d="M0 0 C5.28 0 10.56 0 16 0 C16 11.55 16 23.1 16 35 C18.64 32.69 21.28 30.38 24 28 C30.61835954 23.84863823 37.41127554 24.12969612 45 25 C50.20253292 26.88970927 54.08798483 30.29597549 57 35 C59.30413003 41.21371508 59.25950487 47.04450671 59.1953125 53.62109375 C59.1924826 54.72099136 59.18965271 55.82088898 59.18673706 56.95411682 C59.1755898 60.44869103 59.15049498 63.94300394 59.125 67.4375 C59.11496316 69.81444941 59.10583854 72.19140286 59.09765625 74.56835938 C59.07566827 80.37900611 59.04117582 86.18945883 59 92 C53.39 92 47.78 92 42 92 C41.99589111 90.60241455 41.99178223 89.2048291 41.98754883 87.76489258 C41.96575948 82.57425168 41.91147089 77.38436902 41.84741211 72.1940918 C41.82423055 69.94872307 41.80983605 67.70324558 41.80444336 65.45776367 C41.7951553 62.22766327 41.75416577 58.99927391 41.70703125 55.76953125 C41.7109639 54.76727005 41.71489655 53.76500885 41.71894836 52.7323761 C41.61998388 47.99352229 41.55453101 45.72706435 38.60986328 41.86621094 C34.98795574 39.27632682 32.75417854 39.33932223 28.4375 39.58984375 C24.69343399 40.21985486 22.71532809 41.35089943 20 44 C17.26211876 49.98729344 16.53835858 54.99791417 16.48828125 61.53125 C16.47033005 62.40777222 16.45237885 63.28429443 16.43388367 64.18737793 C16.38015491 66.95820453 16.34600627 69.72886265 16.3125 72.5 C16.27929379 74.39064826 16.24480112 76.28127439 16.20898438 78.171875 C16.12445045 82.78112765 16.05746209 87.3903336 16 92 C10.72 92 5.44 92 0 92 C0 61.64 0 31.28 0 0 Z " fill="#3D73EC" transform="translate(670,325)"/>
<path d="M0 0 C5.43753282 3.35708548 8.26596367 8.18116053 9.95187378 14.24751282 C10.8185883 18.73339337 10.6156773 23.28829352 10.5703125 27.83984375 C10.5674826 28.91754532 10.56465271 29.99524689 10.56173706 31.10560608 C10.55059193 34.52885299 10.52549756 37.95183291 10.5 41.375 C10.48996289 43.70377225 10.48083832 46.03254862 10.47265625 48.36132812 C10.45067111 54.05348741 10.41618018 59.74544852 10.375 65.4375 C4.765 65.4375 -0.845 65.4375 -6.625 65.4375 C-6.62910889 64.03991455 -6.63321777 62.6423291 -6.63745117 61.20239258 C-6.65924052 56.01175168 -6.71352911 50.82186902 -6.77758789 45.6315918 C-6.80076945 43.38622307 -6.81516395 41.14074558 -6.82055664 38.89526367 C-6.8298447 35.66516327 -6.87083423 32.43677391 -6.91796875 29.20703125 C-6.9140361 28.20477005 -6.91010345 27.20250885 -6.90605164 26.1698761 C-7.00480302 21.44122621 -7.07345449 19.16430031 -10.00146484 15.3059082 C-13.80157371 12.59957718 -16.42851418 12.7354252 -20.9609375 12.94921875 C-25.21149876 13.72828056 -26.79968378 15.17751975 -29.625 18.4375 C-32.17942457 23.1338987 -31.97163299 27.90107399 -32.0390625 33.11328125 C-32.05842865 34.0384404 -32.0777948 34.96359955 -32.0977478 35.91679382 C-32.15735254 38.86110317 -32.20385248 41.80545202 -32.25 44.75 C-32.28819736 46.75066775 -32.32725012 48.75131936 -32.3671875 50.75195312 C-32.46303841 55.6470038 -32.54714 60.54213145 -32.625 65.4375 C-38.235 65.4375 -43.845 65.4375 -49.625 65.4375 C-49.625 43.6575 -49.625 21.8775 -49.625 -0.5625 C-44.345 -0.5625 -39.065 -0.5625 -33.625 -0.5625 C-33.625 2.7375 -33.625 6.0375 -33.625 9.4375 C-32.965 9.4375 -32.305 9.4375 -31.625 9.4375 C-31.36589844 8.84324219 -31.10679688 8.24898437 -30.83984375 7.63671875 C-29.53695824 5.27811893 -28.24434696 3.97067412 -26.1875 2.25 C-25.59066406 1.74082031 -24.99382812 1.23164062 -24.37890625 0.70703125 C-18.50822459 -3.54234857 -6.45238198 -2.89799881 0 0 Z " fill="#3E74EC" transform="translate(1077.625,693.5625)"/>
<path d="M0 0 C5.43753282 3.35708548 8.26596367 8.18116053 9.95187378 14.24751282 C10.8185883 18.73339337 10.6156773 23.28829352 10.5703125 27.83984375 C10.5674826 28.91754532 10.56465271 29.99524689 10.56173706 31.10560608 C10.55059193 34.52885299 10.52549756 37.95183291 10.5 41.375 C10.48996289 43.70377225 10.48083832 46.03254862 10.47265625 48.36132812 C10.45067111 54.05348741 10.41618018 59.74544852 10.375 65.4375 C4.765 65.4375 -0.845 65.4375 -6.625 65.4375 C-6.62910889 64.03991455 -6.63321777 62.6423291 -6.63745117 61.20239258 C-6.65924052 56.01175168 -6.71352911 50.82186902 -6.77758789 45.6315918 C-6.80076945 43.38622307 -6.81516395 41.14074558 -6.82055664 38.89526367 C-6.8298447 35.66516327 -6.87083423 32.43677391 -6.91796875 29.20703125 C-6.9140361 28.20477005 -6.91010345 27.20250885 -6.90605164 26.1698761 C-7.00480302 21.44122621 -7.07345449 19.16430031 -10.00146484 15.3059082 C-13.80157371 12.59957718 -16.42851418 12.7354252 -20.9609375 12.94921875 C-25.21149876 13.72828056 -26.79968378 15.17751975 -29.625 18.4375 C-32.17942457 23.1338987 -31.97163299 27.90107399 -32.0390625 33.11328125 C-32.05842865 34.0384404 -32.0777948 34.96359955 -32.0977478 35.91679382 C-32.15735254 38.86110317 -32.20385248 41.80545202 -32.25 44.75 C-32.28819736 46.75066775 -32.32725012 48.75131936 -32.3671875 50.75195312 C-32.46303841 55.6470038 -32.54714 60.54213145 -32.625 65.4375 C-38.235 65.4375 -43.845 65.4375 -49.625 65.4375 C-49.625 43.6575 -49.625 21.8775 -49.625 -0.5625 C-44.345 -0.5625 -39.065 -0.5625 -33.625 -0.5625 C-33.625 2.7375 -33.625 6.0375 -33.625 9.4375 C-32.965 9.4375 -32.305 9.4375 -31.625 9.4375 C-31.36589844 8.84324219 -31.10679687 8.24898437 -30.83984375 7.63671875 C-29.53695824 5.27811893 -28.24434696 3.97067412 -26.1875 2.25 C-25.59066406 1.74082031 -24.99382813 1.23164062 -24.37890625 0.70703125 C-18.50822459 -3.54234857 -6.45238198 -2.89799881 0 0 Z " fill="#3E74EC" transform="translate(537.625,522.5625)"/>
<path d="M0 0 C22.44 0 44.88 0 68 0 C68 4.95 68 9.9 68 15 C59.75 15 51.5 15 43 15 C43 39.09 43 63.18 43 88 C37.06 88 31.12 88 25 88 C25 63.91 25 39.82 25 15 C16.75 15 8.5 15 0 15 C0 10.05 0 5.1 0 0 Z " fill="#4176EC" transform="translate(590,329)"/>
<path d="M0 0 C2.95655996 1.67081534 5.30704338 3.66379356 7.76953125 6 C6.40582826 8.99220268 4.82045042 11.29026529 2.64453125 13.75 C2.10570312 14.36359375 1.566875 14.9771875 1.01171875 15.609375 C0.60179687 16.06828125 0.191875 16.5271875 -0.23046875 17 C-2.47671587 15.91847361 -4.50325999 14.81219899 -6.5625 13.39453125 C-9.87142179 11.66497769 -12.20335511 11.63243731 -15.91796875 11.6875 C-17.05621094 11.69136719 -18.19445312 11.69523438 -19.3671875 11.69921875 C-22.35999596 11.70995134 -22.35999596 11.70995134 -24.23046875 14 C-24.39727984 17.08347826 -24.39727984 17.08347826 -24.23046875 20 C-19.45285881 22.17667171 -14.92550221 23.6679734 -9.79296875 24.875 C-2.3960531 26.74673889 2.86823161 29.09870036 8.26953125 34.5 C10.85761354 40.53885867 10.81964361 47.1102347 9.109375 53.4453125 C6.94775936 58.36743296 3.59507459 61.65538572 -1.23046875 64 C-11.26011102 67.49928551 -24.45768797 67.96938138 -34.171875 63.2890625 C-37.54838238 61.17474099 -40.35170479 58.75360031 -43.23046875 56 C-42.64510122 52.33939179 -41.14722975 50.45464836 -38.66796875 47.75 C-38.02730469 47.04359375 -37.38664063 46.3371875 -36.7265625 45.609375 C-36.23285156 45.07828125 -35.73914063 44.5471875 -35.23046875 44 C-32.40232098 45.36334478 -29.75295819 46.87636129 -27.10546875 48.5625 C-23.273075 50.99932395 -20.9571622 52.16807074 -16.35546875 52.25 C-15.49179687 52.27578125 -14.628125 52.3015625 -13.73828125 52.328125 C-10.72015697 51.93323023 -9.37921621 51.13389437 -7.23046875 49 C-6.89649088 45.87413125 -6.89649088 45.87413125 -7.23046875 43 C-11.61328574 40.60998459 -15.68517326 39.29223231 -20.54296875 38.1875 C-28.27062059 36.25961334 -35.15581137 33.5458341 -39.79296875 26.75 C-42.24175025 21.63802756 -42.08198152 16.18612393 -40.640625 10.79296875 C-38.19463253 4.89778875 -33.73939004 1.93200415 -28.23046875 -1 C-20.21410197 -3.67212226 -7.85574912 -3.22287143 0 0 Z " fill="#3E74EC" transform="translate(930.23046875,523)"/>
<path d="M0 0 C2.95655996 1.67081534 5.30704338 3.66379356 7.76953125 6 C6.40582826 8.99220268 4.82045042 11.29026529 2.64453125 13.75 C2.10570312 14.36359375 1.566875 14.9771875 1.01171875 15.609375 C0.60179687 16.06828125 0.191875 16.5271875 -0.23046875 17 C-2.60306016 15.82139087 -4.95226523 14.61700595 -7.29296875 13.375 C-12.0196339 11.35075427 -17.18169253 11.35529723 -22.23046875 12 C-24.58020693 13.89755144 -24.58020693 13.89755144 -24.35546875 17.125 C-24.31421875 18.07375 -24.27296875 19.0225 -24.23046875 20 C-19.46643769 22.1738188 -14.98186184 23.63568649 -9.85546875 24.8125 C-2.22058972 26.72405029 3.88955011 29.33456945 8.83203125 35.625 C10.56446497 41.8617614 10.6551076 48.18699278 8.70703125 54.375 C4.18667704 60.49935086 -0.90481363 63.98073322 -8.23046875 66 C-11.16156678 66.4344969 -14.02003522 66.52468364 -16.98046875 66.5 C-18.15355591 66.49359497 -18.15355591 66.49359497 -19.3503418 66.48706055 C-27.61542127 66.2467423 -35.16597953 63.95856414 -41.54296875 58.5 C-43.23046875 56 -43.23046875 56 -43.48046875 53.625 C-41.57628424 49.62621252 -38.48283924 46.94666464 -35.23046875 44 C-31.804046 45.61907888 -28.93444811 47.61193531 -25.9140625 49.87890625 C-22.79493965 51.95590917 -19.93743317 52.18423523 -16.29296875 52.25 C-15.43832031 52.27578125 -14.58367187 52.3015625 -13.703125 52.328125 C-10.76902397 51.93876562 -9.42346674 50.93350171 -7.23046875 49 C-7.72546875 45.535 -7.72546875 45.535 -8.23046875 42 C-13.99418346 40.0490519 -19.73855818 38.11876648 -25.60546875 36.5 C-32.0302165 34.58493096 -36.38942908 31.54816841 -40.23046875 26 C-41.98107415 20.74818379 -42.28767245 14.93942151 -40.39453125 9.67578125 C-32.77995314 -3.7391634 -13.30635829 -5.45901878 0 0 Z " fill="#3E74EC" transform="translate(1470.23046875,694)"/>
<path d="M0 0 C2.95655996 1.67081534 5.30704338 3.66379356 7.76953125 6 C6.40582826 8.99220268 4.82045042 11.29026529 2.64453125 13.75 C2.10570312 14.36359375 1.566875 14.9771875 1.01171875 15.609375 C0.60179687 16.06828125 0.191875 16.5271875 -0.23046875 17 C-2.60306016 15.82139087 -4.95226523 14.61700595 -7.29296875 13.375 C-12.0196339 11.35075427 -17.18169253 11.35529723 -22.23046875 12 C-24.58020693 13.89755144 -24.58020693 13.89755144 -24.35546875 17.125 C-24.31421875 18.07375 -24.27296875 19.0225 -24.23046875 20 C-19.46643769 22.1738188 -14.98186184 23.63568649 -9.85546875 24.8125 C-2.22058972 26.72405029 3.88955011 29.33456945 8.83203125 35.625 C10.56446497 41.8617614 10.6551076 48.18699278 8.70703125 54.375 C4.18667704 60.49935086 -0.90481363 63.98073322 -8.23046875 66 C-11.16156678 66.4344969 -14.02003522 66.52468364 -16.98046875 66.5 C-18.15355591 66.49359497 -18.15355591 66.49359497 -19.3503418 66.48706055 C-27.61542127 66.2467423 -35.16597953 63.95856414 -41.54296875 58.5 C-43.23046875 56 -43.23046875 56 -43.48046875 53.625 C-41.57628424 49.62621252 -38.48283924 46.94666464 -35.23046875 44 C-31.804046 45.61907888 -28.93444811 47.61193531 -25.9140625 49.87890625 C-22.79493965 51.95590917 -19.93743317 52.18423523 -16.29296875 52.25 C-15.43832031 52.27578125 -14.58367187 52.3015625 -13.703125 52.328125 C-10.76902397 51.93876562 -9.42346674 50.93350171 -7.23046875 49 C-7.72546875 45.535 -7.72546875 45.535 -8.23046875 42 C-13.99418346 40.0490519 -19.73855818 38.11876648 -25.60546875 36.5 C-32.0302165 34.58493096 -36.38942908 31.54816841 -40.23046875 26 C-41.98107415 20.74818379 -42.28767245 14.93942151 -40.39453125 9.67578125 C-32.77995314 -3.7391634 -13.30635829 -5.45901878 0 0 Z " fill="#3E74EC" transform="translate(1267.23046875,352)"/>
<path d="M0 0 C1.11894653 0.00241699 1.11894653 0.00241699 2.26049805 0.00488281 C9.57883951 0.16595107 16.59954429 1.37551153 22.10546875 6.515625 C22.66878906 7.12921875 23.23210937 7.7428125 23.8125 8.375 C22.33920958 13.38418744 19.53734762 15.89307722 15.8125 19.375 C13.59564553 18.30762563 11.58339066 17.21751206 9.55078125 15.8203125 C6.34453381 14.1279993 4.28969147 14.00381768 0.6875 14.0625 C-0.86324219 14.06830078 -0.86324219 14.06830078 -2.4453125 14.07421875 C-5.40228889 14.18548468 -5.40228889 14.18548468 -8.1875 16.375 C-7.8575 18.685 -7.5275 20.995 -7.1875 23.375 C-3.67867298 24.92160919 -0.2036031 25.88647341 3.53588867 26.71777344 C12.19870965 28.66556677 19.39716856 30.60619271 24.8125 38.125 C27.72859593 43.39374282 27.71164556 48.00180797 26.18359375 53.734375 C23.94078368 59.72861179 20.41508735 63.33444992 14.8125 66.375 C10.06548394 68.34954229 5.64796805 68.72727017 0.5625 68.6875 C-0.18894287 68.68186035 -0.94038574 68.6762207 -1.71459961 68.67041016 C-10.77120537 68.47329407 -17.41745001 66.46105382 -24.69140625 60.97265625 C-26.51496313 59.02530699 -27.1227987 58.05761525 -27.1875 55.375 C-25.640625 53.015625 -25.640625 53.015625 -23.4375 50.625 C-22.72078125 49.82578125 -22.0040625 49.0265625 -21.265625 48.203125 C-19.1875 46.375 -19.1875 46.375 -16.1875 46.375 C-15.465625 47.138125 -14.74375 47.90125 -14 48.6875 C-9.65560106 52.83881454 -5.43639017 54.18441609 0.5 54.6875 C3.67683388 54.38779869 5.95647491 53.75973944 8.8125 52.375 C8.97927282 48.95843976 8.97927282 48.95843976 8.8125 45.375 C6.65565816 43.21815816 5.75974073 42.92310285 2.890625 42.19140625 C2.11203125 41.98580078 1.3334375 41.78019531 0.53125 41.56835938 C-0.2834375 41.36017578 -1.098125 41.15199219 -1.9375 40.9375 C-10.51551246 38.74457262 -18.2671221 36.55713438 -23.3046875 28.61328125 C-25.19934198 23.80957765 -24.6921238 18.43385361 -24.1875 13.375 C-21.60476206 7.81217982 -17.20458582 3.63102117 -11.50390625 1.2578125 C-7.63493771 0.22791039 -3.97678962 -0.00893761 0 0 Z " fill="#3E74EC" transform="translate(1566.1875,520.625)"/>
<path d="M0 0 C5.94 0 11.88 0 18 0 C23.28 15.18 28.56 30.36 34 46 C35.71217628 43.43173558 36.61467767 41.57114335 37.60400391 38.7121582 C37.90416412 37.85149246 38.20432434 36.99082672 38.51358032 36.1040802 C38.83136444 35.17899155 39.14914856 34.25390289 39.4765625 33.30078125 C39.80667328 32.35059616 40.13678406 31.40041107 40.47689819 30.4214325 C41.53026223 27.38648991 42.57769574 24.34953837 43.625 21.3125 C44.33815202 19.25442223 45.05168899 17.19647781 45.765625 15.13867188 C47.51488721 10.09398436 49.2588334 5.04748713 51 0 C56.61 0 62.22 0 68 0 C67.26363133 3.68184336 66.47465943 6.72227421 65.20581055 10.19824219 C64.65469856 11.71572052 64.65469856 11.71572052 64.092453 13.26385498 C63.49561455 14.88894989 63.49561455 14.88894989 62.88671875 16.546875 C62.47589554 17.67264954 62.06507233 18.79842407 61.64179993 19.95831299 C60.77184636 22.33939474 59.90007162 24.71981177 59.02661133 27.09960938 C57.69820438 30.72082008 56.37700095 34.34459876 55.05664062 37.96875 C54.20876599 40.28661665 53.36047214 42.60432999 52.51171875 44.921875 C52.11989914 45.99717468 51.72807953 47.07247437 51.3243866 48.18035889 C50.94752213 49.20461975 50.57065765 50.22888062 50.18237305 51.28417969 C49.85673874 52.17288757 49.53110443 53.06159546 49.19560242 53.97723389 C47.58983547 58.03699308 45.77311571 62.01048965 44 66 C37.4 66 30.8 66 24 66 C21.54493895 59.33345841 19.09139562 52.66636078 16.63916016 45.9987793 C15.80752954 43.7382152 14.97550915 41.47779446 14.14306641 39.2175293 C9.33987067 26.17491657 4.58858391 13.11978603 0 0 Z " fill="#3D73EC" transform="translate(694,693)"/>
<path d="M0 0 C0 5.28 0 10.56 0 16 C5.94 16 11.88 16 18 16 C18 20.29 18 24.58 18 29 C12.06 29 6.12 29 0 29 C0.05106755 33.91269851 0.11401017 38.82223536 0.20751953 43.73388672 C0.23571718 45.40403011 0.25693779 47.07430665 0.27099609 48.74462891 C0.29244337 51.14815372 0.33909845 53.55007983 0.390625 55.953125 C0.39185364 56.69806213 0.39308228 57.44299927 0.39434814 58.21051025 C0.49338927 61.72854403 0.7411385 63.66307703 2.91308594 66.48999023 C4.84446036 68.15224014 4.84446036 68.15224014 7 68.20703125 C7.66 68.07683594 8.32 67.94664062 9 67.8125 C9.66 67.69519531 10.32 67.57789063 11 67.45703125 C13.00751113 66.99828359 15.00542569 66.5120001 17 66 C17.6987693 67.76641683 18.38366583 69.53832664 19.0625 71.3125 C19.44535156 72.29863281 19.82820313 73.28476562 20.22265625 74.30078125 C21 77 21 77 20 80 C12.53425103 84.03150445 2.79929577 84.70794568 -5.34765625 82.30859375 C-10.50851118 79.5977271 -14.18385124 75.2866695 -16.12451172 69.84936523 C-17.10925201 65.51963848 -17.25427342 61.63905889 -17.1953125 57.22265625 C-17.1924826 56.41130722 -17.18965271 55.59995819 -17.18673706 54.76402283 C-17.17562663 52.19669247 -17.15053971 49.62972322 -17.125 47.0625 C-17.11495836 45.31185403 -17.10583459 43.56120254 -17.09765625 41.81054688 C-17.07571734 37.54022746 -17.0412516 33.27017475 -17 29 C-20.3 29 -23.6 29 -27 29 C-27 24.71 -27 20.42 -27 16 C-23.7 16 -20.4 16 -17 16 C-17 11.71 -17 7.42 -17 3 C-4.5 0 -4.5 0 0 0 Z " fill="#3D74EC" transform="translate(1310,335)"/>
<path d="M0 0 C0 4.95 0 9.9 0 15 C6.27 15 12.54 15 19 15 C19 19.29 19 23.58 19 28 C12.73 28 6.46 28 0 28 C0.11986522 32.92977584 0.24250186 37.85931766 0.37231445 42.78881836 C0.41563167 44.46585987 0.45730907 46.14294458 0.49731445 47.82006836 C0.55509485 50.23043841 0.6187668 52.6405917 0.68359375 55.05078125 C0.70030624 55.80087967 0.71701874 56.55097809 0.73423767 57.32380676 C0.82344233 60.45677992 1.00236453 63.0070936 2 66 C3.74991334 66.02715383 5.49994945 66.04646551 7.25 66.0625 C8.71179688 66.07990234 8.71179688 66.07990234 10.203125 66.09765625 C12.65758678 66.01195577 14.66168914 65.70706066 17 65 C17.70133599 66.57725347 18.385583 68.16211333 19.0625 69.75 C19.44535156 70.63171875 19.82820313 71.5134375 20.22265625 72.421875 C21.05655785 75.18757881 21.16083044 76.37951148 20 79 C13.64150237 83.14041706 6.34806145 82.63181212 -1 82 C-6.16260197 80.86158008 -9.67512301 78.06373854 -13 74 C-15.92400145 68.41997556 -16.41124711 64.02567639 -16.29296875 57.78515625 C-16.28872391 56.92941513 -16.28447906 56.07367401 -16.28010559 55.19200134 C-16.26342789 52.4818358 -16.22579705 49.77243752 -16.1875 47.0625 C-16.17243902 45.2155056 -16.1587531 43.36849944 -16.14648438 41.52148438 C-16.11356026 37.01403116 -16.06185469 32.50714528 -16 28 C-19.63 28 -23.26 28 -27 28 C-27 23.71 -27 19.42 -27 15 C-23.37 15 -19.74 15 -16 15 C-16 10.71 -16 6.42 -16 2 C-10.44542412 0.10908055 -5.86928404 -0.18059336 0 0 Z " fill="#3D73EC" transform="translate(387,678)"/>
<path d="M0 0 C0 4.95 0 9.9 0 15 C6.27 15 12.54 15 19 15 C19 19.29 19 23.58 19 28 C12.73 28 6.46 28 0 28 C0.07413368 32.60906957 0.15707373 37.21624477 0.26245117 41.82446289 C0.29562532 43.39076801 0.32368058 44.95719051 0.34643555 46.52368164 C0.38012116 48.78061763 0.43244049 51.03648526 0.48828125 53.29296875 C0.49467117 53.98899704 0.5010611 54.68502533 0.50764465 55.40214539 C0.63716302 59.72270809 1.25536083 62.61270195 4 66 C7.52020028 66.96005462 9.83181972 67.48674178 13.25 66.0625 C13.8275 65.711875 14.405 65.36125 15 65 C15.99 65 16.98 65 18 65 C19.51870725 68.93834254 20.9405414 72.63245211 21.125 76.875 C19.74075325 79.4896883 18.25755043 80.49456258 15.48828125 81.4921875 C7.81484075 83.05819577 -1.50890123 83.60978553 -8.41796875 79.41015625 C-12.20563202 76.0339922 -14.41502975 71.75491076 -16 67 C-16.085409 64.05035887 -16.11582927 61.12496981 -16.09765625 58.17578125 C-16.0962413 57.31438034 -16.09482635 56.45297943 -16.09336853 55.56547546 C-16.0877714 52.81444831 -16.07521946 50.06350256 -16.0625 47.3125 C-16.05748463 45.4472668 -16.05292179 43.58203233 -16.04882812 41.71679688 C-16.03780292 37.14449989 -16.02054027 32.57226375 -16 28 C-19.3 28 -22.6 28 -26 28 C-26 23.71 -26 19.42 -26 15 C-22.7 15 -19.4 15 -16 15 C-16 10.71 -16 6.42 -16 2 C-10.44542412 0.10908055 -5.86928404 -0.18059336 0 0 Z " fill="#3C72EC" transform="translate(1126,336)"/>
<path d="M0 0 C5.28 0 10.56 0 16 0 C16.01981934 2.29179199 16.03963867 4.58358398 16.06005859 6.94482422 C16.12687169 14.50461115 16.20451225 22.06425868 16.28752708 29.6238842 C16.33753993 34.20869782 16.38386933 38.79348784 16.421875 43.37841797 C16.45866504 47.80053679 16.50500746 52.22246046 16.55806351 56.64441299 C16.57664098 58.33412387 16.59173646 60.02387662 16.60334396 61.71364975 C16.62014942 64.07476674 16.64916958 66.43543351 16.68115234 68.79638672 C16.68331253 69.49985229 16.68547272 70.20331787 16.68769836 70.92810059 C16.65730678 74.9083553 16.65730678 74.9083553 19 78 C21.32275177 78.40047444 23.65739357 78.7397104 26 79 C26.33 83.29 26.66 87.58 27 92 C20.74251171 94.08582943 13.39543597 94.1346802 7.4375 91.3125 C2.94954369 87.05469529 0.10258356 83.93095335 -0.12025452 77.56416321 C-0.12315505 76.11740229 -0.12049202 74.670624 -0.11352539 73.22387695 C-0.11367142 72.43339966 -0.11381744 71.64292236 -0.1139679 70.82849121 C-0.11327109 68.21506 -0.10548955 65.60170001 -0.09765625 62.98828125 C-0.09579124 61.17652933 -0.09436773 59.3647769 -0.09336853 57.55302429 C-0.08954985 52.78382984 -0.07972508 48.01466582 -0.06866455 43.2454834 C-0.05843649 38.37915458 -0.05386792 33.51282084 -0.04882812 28.64648438 C-0.03810225 19.09764072 -0.02051068 9.54882765 0 0 Z " fill="#3B72EC" transform="translate(1174,667)"/>
<path d="M0 0 C5.28 0 10.56 0 16 0 C16.01981934 2.29179199 16.03963867 4.58358398 16.06005859 6.94482422 C16.12687169 14.50461115 16.20451225 22.06425868 16.28752708 29.6238842 C16.33753993 34.20869782 16.38386933 38.79348784 16.421875 43.37841797 C16.45866504 47.80053679 16.50500746 52.22246046 16.55806351 56.64441299 C16.57664098 58.33412387 16.59173646 60.02387662 16.60334396 61.71364975 C16.62014942 64.07476674 16.64916958 66.43543351 16.68115234 68.79638672 C16.68331253 69.49985229 16.68547272 70.20331787 16.68769836 70.92810059 C16.65730678 74.9083553 16.65730678 74.9083553 19 78 C21.32275177 78.40047444 23.65739357 78.7397104 26 79 C26.33 83.29 26.66 87.58 27 92 C20.74251171 94.08582943 13.39543597 94.1346802 7.4375 91.3125 C2.94954369 87.05469529 0.10258356 83.93095335 -0.12025452 77.56416321 C-0.12315505 76.11740229 -0.12049202 74.670624 -0.11352539 73.22387695 C-0.11367142 72.43339966 -0.11381744 71.64292236 -0.1139679 70.82849121 C-0.11327109 68.21506 -0.10548955 65.60170001 -0.09765625 62.98828125 C-0.09579124 61.17652933 -0.09436773 59.3647769 -0.09336853 57.55302429 C-0.08954985 52.78382984 -0.07972508 48.01466582 -0.06866455 43.2454834 C-0.05843649 38.37915458 -0.05386792 33.51282084 -0.04882812 28.64648438 C-0.03810225 19.09764072 -0.02051068 9.54882765 0 0 Z " fill="#3B72EC" transform="translate(524,667)"/>
<path d="M0 0 C5.28 0 10.56 0 16 0 C16.01981934 2.29179199 16.03963867 4.58358398 16.06005859 6.94482422 C16.12687169 14.50461115 16.20451225 22.06425868 16.28752708 29.6238842 C16.33753993 34.20869782 16.38386933 38.79348784 16.421875 43.37841797 C16.45866504 47.80053679 16.50500746 52.22246046 16.55806351 56.64441299 C16.57664098 58.33412387 16.59173646 60.02387662 16.60334396 61.71364975 C16.62014942 64.07476674 16.64916958 66.43543351 16.68115234 68.79638672 C16.68331253 69.49985229 16.68547272 70.20331787 16.68769836 70.92810059 C16.65730678 74.9083553 16.65730678 74.9083553 19 78 C21.32275177 78.40047444 23.65739357 78.7397104 26 79 C26.33 83.29 26.66 87.58 27 92 C20.74251171 94.08582943 13.39543597 94.1346802 7.4375 91.3125 C2.94954369 87.05469529 0.10258356 83.93095335 -0.12025452 77.56416321 C-0.12315505 76.11740229 -0.12049202 74.670624 -0.11352539 73.22387695 C-0.11367142 72.43339966 -0.11381744 71.64292236 -0.1139679 70.82849121 C-0.11327109 68.21506 -0.10548955 65.60170001 -0.09765625 62.98828125 C-0.09579124 61.17652933 -0.09436773 59.3647769 -0.09336853 57.55302429 C-0.08954985 52.78382984 -0.07972508 48.01466582 -0.06866455 43.2454834 C-0.05843649 38.37915458 -0.05386792 33.51282084 -0.04882812 28.64648438 C-0.03810225 19.09764072 -0.02051068 9.54882765 0 0 Z " fill="#3B72EC" transform="translate(634,496)"/>
<path d="M0 0 C0.66 0.33 1.32 0.66 2 1 C1.88382356 2.37577361 1.75654223 3.75061045 1.625 5.125 C1.55539062 5.89070313 1.48578125 6.65640625 1.4140625 7.4453125 C0.92941745 10.43548102 0.01573447 13.15098869 -1 16 C-1.88042969 15.95359375 -2.76085937 15.9071875 -3.66796875 15.859375 C-4.82941406 15.82328125 -5.99085938 15.7871875 -7.1875 15.75 C-8.33605469 15.70359375 -9.48460937 15.6571875 -10.66796875 15.609375 C-14.76985034 16.09025209 -16.19350935 16.99477686 -19 20 C-21.89024972 25.52313042 -22.46339666 30.03688927 -22.51171875 36.21484375 C-22.52966995 37.07058487 -22.54762115 37.92632599 -22.56611633 38.80799866 C-22.61992031 41.51778361 -22.65401813 44.2273955 -22.6875 46.9375 C-22.72069956 48.78452914 -22.75519164 50.63153552 -22.79101562 52.47851562 C-22.87804249 56.98569786 -22.9383646 61.49211433 -23 66 C-28.61 66 -34.22 66 -40 66 C-40 44.22 -40 22.44 -40 0 C-34.39 0 -28.78 0 -23 0 C-22.67 2.97 -22.34 5.94 -22 9 C-21.484375 8.0925 -20.96875 7.185 -20.4375 6.25 C-15.52909736 -1.0178804 -8.20695002 -2.73565001 0 0 Z " fill="#4076EC" transform="translate(956,351)"/>
<path d="M0 0 C0.99 0.66 1.98 1.32 3 2 C2.85636473 3.37523135 2.70996483 4.75017402 2.5625 6.125 C2.48128906 6.89070312 2.40007812 7.65640625 2.31640625 8.4453125 C1.96120001 11.31327401 1.49109894 14.1524515 1 17 C-0.42892578 16.93039062 -0.42892578 16.93039062 -1.88671875 16.859375 C-3.14097656 16.82328125 -4.39523437 16.7871875 -5.6875 16.75 C-6.92886719 16.70359375 -8.17023438 16.6571875 -9.44921875 16.609375 C-13.72391243 17.07963833 -15.13784556 17.81203113 -18 21 C-20.6287962 26.86608046 -21.46007381 31.70947542 -21.51171875 38.09375 C-21.52966995 38.92588013 -21.54762115 39.75801025 -21.56611633 40.61535645 C-21.61980627 43.24352114 -21.65398071 45.87150865 -21.6875 48.5 C-21.72070969 50.29429528 -21.75520267 52.08856729 -21.79101562 53.8828125 C-21.87550824 58.25507956 -21.94251459 62.62729786 -22 67 C-27.28 67 -32.56 67 -38 67 C-38 45.22 -38 23.44 -38 1 C-32.72 1 -27.44 1 -22 1 C-21.67 3.97 -21.34 6.94 -21 10 C-20.505 9.0925 -20.01 8.185 -19.5 7.25 C-15.07136439 0.69251149 -7.58660461 -1.28687968 0 0 Z " fill="#3C73EC" transform="translate(1213,521)"/>
<path d="M0 0 C5.61 0 11.22 0 17 0 C17 21.78 17 43.56 17 66 C11.39 66 5.78 66 0 66 C0 44.22 0 22.44 0 0 Z " fill="#4075EC" transform="translate(1509,522)"/>
<path d="M0 0 C5.61 0 11.22 0 17 0 C17 21.78 17 43.56 17 66 C11.39 66 5.78 66 0 66 C0 44.22 0 22.44 0 0 Z " fill="#3E74EC" transform="translate(1031,522)"/>
<path d="M0 0 C4.54739862 3.10554052 6.32293317 6.41032749 7.5625 11.75 C8.36232851 19.90347568 7.59744597 27.48958796 3.5625 34.75 C-0.89504343 38.73504383 -5.15562217 39.10309679 -10.9296875 39.02734375 C-14.684247 38.61211988 -16.69249237 37.29415341 -19.4375 34.75 C-23.99778052 27.35920054 -24.16448084 19.22803011 -23.4375 10.75 C-22.18791784 6.20866139 -20.20461809 3.48058866 -16.8125 0.25 C-11.08804652 -2.29420155 -5.85162598 -2.12786399 0 0 Z " fill="#E7E8EA" transform="translate(455.4375,707.25)"/>
<path d="M0 0 C3.75291584 1.97591682 6.15893567 4.43152868 8.15625 8.15625 C10.2811385 15.31791123 10.36256264 24.73102693 8.08984375 31.8515625 C5.62370122 36.08603231 2.74524597 38.53992432 -2 40 C-6.61821634 40.65618542 -10.00805789 40.43046545 -14.3125 38.5625 C-19.96373815 33.17411014 -21.24765022 27.63879754 -21.4375 19.9375 C-21.21260504 12.98824585 -20.68674941 7.55568847 -15.4375 2.5625 C-10.42611284 -0.64992767 -5.87597157 -0.85792422 0 0 Z " fill="#E6E7EA" transform="translate(1316,706)"/>
<path d="M0 0 C3.75291584 1.97591682 6.15893567 4.43152868 8.15625 8.15625 C10.2811385 15.31791123 10.36256264 24.73102693 8.08984375 31.8515625 C5.62370122 36.08603231 2.74524597 38.53992432 -2 40 C-6.61821634 40.65618542 -10.00805789 40.43046545 -14.3125 38.5625 C-19.96373815 33.17411014 -21.24765022 27.63879754 -21.4375 19.9375 C-21.21260504 12.98824585 -20.68674941 7.55568847 -15.4375 2.5625 C-10.42611284 -0.64992767 -5.87597157 -0.85792422 0 0 Z " fill="#E6E7EA" transform="translate(1130,535)"/>
<path d="M0 0 C5.38470936 4.59284034 7.67716341 9.0748603 8.34765625 16.16796875 C8.58878543 22.93006969 7.79882974 29.11789196 3.75390625 34.70703125 C0.29197268 38.25198481 -2.56076661 39.21524043 -7.5 39.375 C-11.71116254 39.11000208 -14.7057122 38.78970975 -17.875 35.8125 C-21.89331362 30.07312095 -22.49897772 25.73458913 -22.375 18.8125 C-22.39046875 17.94882812 -22.4059375 17.08515625 -22.421875 16.1953125 C-22.38561631 10.23075867 -21.30695939 6.70527482 -17.875 1.8125 C-13.04337023 -2.59280949 -5.81399647 -2.40143333 0 0 Z " fill="#E7E8EA" transform="translate(777.875,536.1875)"/>
<path d="M0 0 C5.754375 -0.0928125 5.754375 -0.0928125 11.625 -0.1875 C13.42251709 -0.22846802 13.42251709 -0.22846802 15.25634766 -0.27026367 C22.33385461 -0.32552884 26.93709964 0.2595102 32.375 5.125 C34.65591371 9.16046271 34.64757641 12.46696513 34 17 C32.77576984 20.67269049 31.8339831 22.40409653 28.6875 24.65234375 C23.18664488 26.66271983 17.9259704 26.31419301 12.125 26.1875 C8.12375 26.125625 4.1225 26.06375 0 26 C0 17.42 0 8.84 0 0 Z " fill="#E6E7EA" transform="translate(352,548)"/>
<path d="M0 0 C5.754375 -0.0928125 5.754375 -0.0928125 11.625 -0.1875 C13.42251709 -0.22846802 13.42251709 -0.22846802 15.25634766 -0.27026367 C20.88495717 -0.31421503 25.21312123 -0.33821809 30 3 C33.45919755 6.91435512 34.6129485 9.94134784 34.3203125 15.04296875 C33.63096281 19.25472723 32.20395286 22.10828571 28.77270508 24.6496582 C25.53208998 26.22787799 23.41354704 26.34601301 19.82421875 26.29296875 C18.25933716 26.28172974 18.25933716 26.28172974 16.6628418 26.27026367 C15.350979 26.24295166 14.03911621 26.21563965 12.6875 26.1875 C8.500625 26.125625 4.31375 26.06375 0 26 C0 17.42 0 8.84 0 0 Z " fill="#E7E8EA" transform="translate(892,719)"/>
<path d="M0 0 C3.17625 -0.061875 6.3525 -0.12375 9.625 -0.1875 C11.1092749 -0.22846802 11.1092749 -0.22846802 12.62353516 -0.27026367 C17.84402898 -0.31933441 21.50410849 0.03356525 26 3 C28.44340191 5.93208229 28.96659534 7.68822321 29.375 11.5 C28.97335498 15.2486869 28.3404622 17.07442224 26 20 C22.86743318 21.97435725 20.46491857 22.23796417 16.796875 22.1953125 C15.91354492 22.19031738 15.03021484 22.18532227 14.12011719 22.18017578 C13.00797852 22.16196777 11.89583984 22.14375977 10.75 22.125 C7.2025 22.08375 3.655 22.0425 0 22 C0 14.74 0 7.48 0 0 Z " fill="#E4E6EA" transform="translate(352,513)"/>
<path d="M0 0 C3.17625 -0.061875 6.3525 -0.12375 9.625 -0.1875 C11.1092749 -0.22846802 11.1092749 -0.22846802 12.62353516 -0.27026367 C17.82669214 -0.31917145 21.54756216 -0.01276945 26 3 C28.95791214 7.43686821 28.65561752 11.79408467 28 17 C26.1031157 19.65563802 24.85514945 20.57242527 22 22 C20.3325394 22.08426094 18.66174813 22.10725143 16.9921875 22.09765625 C16.1038623 22.09515869 15.21553711 22.09266113 14.30029297 22.09008789 C13.16994629 22.08098389 12.03959961 22.07187988 10.875 22.0625 C5.491875 22.0315625 5.491875 22.0315625 0 22 C0 14.74 0 7.48 0 0 Z " fill="#E6E7EA" transform="translate(892,684)"/>
<path d="M0 0 C1.0415625 -0.01611328 2.083125 -0.03222656 3.15625 -0.04882812 C13.04832029 -0.05515298 13.04832029 -0.05515298 16.625 3.3125 C17.12069035 6.78233248 17.40514071 9.12175891 15.4375 12.125 C10.79719854 15.16519751 6.6848123 15.60839181 1.1875 15.625 C-0.72869141 15.65013672 -0.72869141 15.65013672 -2.68359375 15.67578125 C-7.33703729 15.21782331 -10.43982199 13.56100194 -14.3125 11.0625 C-15.375 9.3125 -15.375 9.3125 -15.25 5.75 C-13.34449272 -1.73592144 -6.36047797 -0.01953464 0 0 Z " fill="#E5E7EA" transform="translate(1129.375,759.6875)"/>
<path d="M0 0 C1.0415625 -0.01611328 2.083125 -0.03222656 3.15625 -0.04882812 C13.04832029 -0.05515298 13.04832029 -0.05515298 16.625 3.3125 C17.12069035 6.78233248 17.40514071 9.12175891 15.4375 12.125 C10.79719854 15.16519751 6.6848123 15.60839181 1.1875 15.625 C-0.72869141 15.65013672 -0.72869141 15.65013672 -2.68359375 15.67578125 C-7.33703729 15.21782331 -10.43982199 13.56100194 -14.3125 11.0625 C-15.375 9.3125 -15.375 9.3125 -15.25 5.75 C-13.34449272 -1.73592144 -6.36047797 -0.01953464 0 0 Z " fill="#E5E7EA" transform="translate(589.375,588.6875)"/>
<path d="M0 0 C1.63388672 -0.0299707 1.63388672 -0.0299707 3.30078125 -0.06054688 C11.27942926 -0.05566398 11.27942926 -0.05566398 15.33984375 2.3125 C17.125 4.4375 17.125 4.4375 17.8125 6.875 C16.79457364 10.66908915 14.37837586 12.5020426 11.125 14.4375 C4.54018858 16.47565592 -4.08090538 16.49732899 -10.5 14.0625 C-12.875 12.4375 -12.875 12.4375 -14.875 10.4375 C-15.43806493 4.24378576 -15.43806493 4.24378576 -13.69091797 1.74194336 C-9.87165376 -1.00158026 -4.52501446 -0.0292451 0 0 Z " fill="#E6E7EA" transform="translate(871.875,417.5625)"/>
<path d="M0 0 C3.51175747 3.07278779 4.83790324 4.86532268 5.5 9.5 C4.86532649 13.94271455 3.88561658 17.51844412 0.25 20.375 C-3.01922016 21.28311671 -5.62089635 21.35569512 -9 21 C-11.75329021 19.20437595 -13.52627461 17.94745078 -15 15 C-15.64507919 9.79328939 -15.9173523 6.18290165 -12.625 1.9375 C-8.3292853 -1.23314656 -5.12366783 -1.57726677 0 0 Z " fill="#E5E7EA" transform="translate(878,362)"/>
<path d="M0 0 C3.125 1.8125 3.125 1.8125 5 5 C5.82433083 10.02024902 6.14961582 14.39053786 3.125 18.625 C-0.81977405 21.17750085 -4.3466678 21.81121308 -9 21 C-12.21954645 18.46546343 -13.70432435 16.88702695 -15 13 C-15.49584053 8.62007531 -15.25480396 6.46714059 -13.125 2.5625 C-9.49212973 -1.29872211 -4.91130458 -1.03056883 0 0 Z " fill="#E5E6EA" transform="translate(1135,704)"/>
<path d="M0 0 C3.125 1.8125 3.125 1.8125 5 5 C5.82433083 10.02024902 6.14961582 14.39053786 3.125 18.625 C-0.81977405 21.17750085 -4.3466678 21.81121308 -9 21 C-12.21954645 18.46546343 -13.70432435 16.88702695 -15 13 C-15.49584053 8.62007531 -15.25480396 6.46714059 -13.125 2.5625 C-9.49212973 -1.29872211 -4.91130458 -1.03056883 0 0 Z " fill="#E5E6EA" transform="translate(595,533)"/>
<path d="M0 0 C0.66 0 1.32 0 2 0 C2.46867833 7.08225035 2.57532901 13.22063704 -2 19 C-6.25953552 22.02900304 -9.83310575 22.65760472 -15 22 C-17.9375 20.5625 -17.9375 20.5625 -20 18 C-20.65072037 14.8891 -20.78787658 12.08630274 -20 9 C-16.96064955 4.80752915 -13.14865458 3.90305056 -8.3125 2.8125 C-3.7938904 2.08305812 -3.7938904 2.08305812 0 0 Z " fill="#E2E5EA" transform="translate(991,726)"/>
<path d="M0 0 C0.66 0 1.32 0 2 0 C2.46867833 7.08225035 2.57532901 13.22063704 -2 19 C-6.25953552 22.02900304 -9.83310575 22.65760472 -15 22 C-17.9375 20.5625 -17.9375 20.5625 -20 18 C-20.65072037 14.8891 -20.78787658 12.08630274 -20 9 C-16.96064955 4.80752915 -13.14865458 3.90305056 -8.3125 2.8125 C-3.7938904 2.08305812 -3.7938904 2.08305812 0 0 Z " fill="#E2E5EA" transform="translate(451,555)"/>
<path d="M0 0 C0.66 0 1.32 0 2 0 C2.46867833 7.08225035 2.57532901 13.22063704 -2 19 C-6.25953552 22.02900304 -9.83310575 22.65760472 -15 22 C-17.9375 20.5625 -17.9375 20.5625 -20 18 C-20.65072037 14.8891 -20.78787658 12.08630274 -20 9 C-16.96064955 4.80752915 -13.14865458 3.90305056 -8.3125 2.8125 C-3.7938904 2.08305812 -3.7938904 2.08305812 0 0 Z " fill="#E2E5EA" transform="translate(1071,384)"/>
<path d="M0 0 C0.62247839 10.68587896 0.62247839 10.68587896 -1.6875 15.5625 C-5.23260842 19.2992359 -7.88652574 21.13980946 -13.0625 21.4375 C-17 21 -17 21 -19.4375 19.125 C-22.23841805 15.31575145 -22.49074768 12.74389422 -22 8 C-18.367024 4.3533662 -14.78982243 3.06479326 -9.875 1.75 C-8.65554688 1.41484375 -7.43609375 1.0796875 -6.1796875 0.734375 C-3 0 -3 0 0 0 Z " fill="#E4E6EA" transform="translate(668,727)"/>
<path d="M0 0 C0.66 0 1.32 0 2 0 C2.46867833 7.08225035 2.57532901 13.22063704 -2 19 C-6.24040118 22.01539639 -9.85422471 22.74847641 -15 22 C-17.93052231 20.00475077 -19.64521503 18.57163515 -20.4453125 15.02734375 C-20.62823972 11.76514159 -20.39908567 9.54147302 -18.4453125 6.890625 C-15.30426449 4.46208309 -12.11087555 3.66903188 -8.3125 2.8125 C-3.7938904 2.08305812 -3.7938904 2.08305812 0 0 Z " fill="#E4E6EA" transform="translate(1329,555)"/>
<path d="M0 0 C1.03302668 13.79281925 1.03302668 13.79281925 -2.8125 18.3125 C-5.76915021 21.21074724 -8.21822983 21.92761387 -12.375 22.3125 C-16.59334314 21.94884973 -18.04884992 20.95115008 -21 18 C-22.44430855 15.11138291 -22.37688506 13.20352299 -22 10 C-18.18794522 5.20897396 -14.42839727 3.74497407 -8.75 2.1875 C-8.0178125 1.97158203 -7.285625 1.75566406 -6.53125 1.53320312 C-1.27455357 0 -1.27455357 0 0 0 Z " fill="#E4E6EA" transform="translate(1246,726)"/>
<path d="M0 0 C1.03302668 13.79281925 1.03302668 13.79281925 -2.8125 18.3125 C-5.76915021 21.21074724 -8.21822983 21.92761387 -12.375 22.3125 C-16.59334314 21.94884973 -18.04884992 20.95115008 -21 18 C-22.44430855 15.11138291 -22.37688506 13.20352299 -22 10 C-18.18794522 5.20897396 -14.42839727 3.74497407 -8.75 2.1875 C-8.0178125 1.97158203 -7.285625 1.75566406 -6.53125 1.53320312 C-1.27455357 0 -1.27455357 0 0 0 Z " fill="#E4E6EA" transform="translate(706,555)"/>
<path d="M0 0 C3.57557806 2.00232371 5.72990507 4.07425204 7 8 C7 9.98 7 11.96 7 14 C-1.91 14 -10.82 14 -20 14 C-18.937638 6.56346602 -18.71863669 5.83372539 -14 1 C-9.82437724 -1.08781138 -4.54816058 -0.44327867 0 0 Z " fill="#E7E8EA" transform="translate(1192,363)"/>
<path d="M0 0 C2.36870892 2.14664246 3.70414996 3.87978676 5 6.8125 C5 8.7925 5 10.7725 5 12.8125 C-4.24 12.8125 -13.48 12.8125 -23 12.8125 C-19.4499587 2.1623761 -19.4499587 2.1623761 -15.94140625 -0.37890625 C-10.83164343 -2.50711733 -5.0459152 -1.99734143 0 0 Z " fill="#E6E7EA" transform="translate(1003,364.1875)"/>
<path d="M0 0 C3.23025335 1.627225 5.36088661 3.72177322 7 7 C7 9.31 7 11.62 7 14 C-1.91 14 -10.82 14 -20 14 C-18.85221675 5.96551724 -18.85221675 5.96551724 -15 2 C-10.33020791 -1.11319473 -5.46441192 -0.72810766 0 0 Z " fill="#E7E8EA" transform="translate(1395,705)"/>
<path d="M0 0 C3.23025335 1.627225 5.36088661 3.72177322 7 7 C7 9.31 7 11.62 7 14 C-1.91 14 -10.82 14 -20 14 C-18.85221675 5.96551724 -18.85221675 5.96551724 -15 2 C-10.33020791 -1.11319473 -5.46441192 -0.72810766 0 0 Z " fill="#E7E8EA" transform="translate(806,705)"/>
<path d="M0 0 C3.23025335 1.627225 5.36088661 3.72177322 7 7 C7 9.31 7 11.62 7 14 C-1.91 14 -10.82 14 -20 14 C-18.85221675 5.96551724 -18.85221675 5.96551724 -15 2 C-10.33020791 -1.11319473 -5.46441192 -0.72810766 0 0 Z " fill="#E7E8EA" transform="translate(596,705)"/>
<path d="M0 0 C3.23025335 1.627225 5.36088661 3.72177322 7 7 C7 9.31 7 11.62 7 14 C-1.91 14 -10.82 14 -20 14 C-18.85221675 5.96551724 -18.85221675 5.96551724 -15 2 C-10.33020791 -1.11319473 -5.46441192 -0.72810766 0 0 Z " fill="#E7E8EA" transform="translate(1259,534)"/>
<path d="M0 0 C3.23025335 1.627225 5.36088661 3.72177322 7 7 C7 9.31 7 11.62 7 14 C-1.91 14 -10.82 14 -20 14 C-18.85221675 5.96551724 -18.85221675 5.96551724 -15 2 C-10.33020791 -1.11319473 -5.46441192 -0.72810766 0 0 Z " fill="#E7E8EA" transform="translate(855,534)"/>
<path d="M0 0 C3.23025335 1.627225 5.36088661 3.72177322 7 7 C7 9.31 7 11.62 7 14 C-1.91 14 -10.82 14 -20 14 C-18.85221675 5.96551724 -18.85221675 5.96551724 -15 2 C-10.33020791 -1.11319473 -5.46441192 -0.72810766 0 0 Z " fill="#E7E8EA" transform="translate(781,363)"/>
<path d="M0 0 C2.87029869 1.79393668 4.49131638 2.98263276 6 6 C6.4136968 10.65408901 5.81070393 13.25239476 3 17 C-1.03485494 19.68990329 -4.26228652 19.77993882 -9 19 C-12.0625 17.0625 -12.0625 17.0625 -14 14 C-15.03945854 9.24941677 -14.669717 6.05858493 -12.0625 1.9375 C-7.95859581 -0.65884755 -4.73725096 -0.95259938 0 0 Z " fill="#3F75EC" transform="translate(1044,495)"/>
<path d="M0 0 C2.87029869 1.79393668 4.49131638 2.98263276 6 6 C5.984375 8.05859375 5.984375 8.05859375 5.75 10.4375 C5.68296875 11.21996094 5.6159375 12.00242187 5.546875 12.80859375 C4.8956961 15.41796062 4.10493912 16.36115454 2 18 C-1.60572704 19.20190901 -4.2102435 19.32670315 -8 19 C-10.75329021 17.20437595 -12.52627461 15.94745078 -14 13 C-14.68288206 6.05736576 -14.68288206 6.05736576 -12.0625 2 C-7.96602574 -0.67524849 -4.76875356 -0.95893414 0 0 Z " fill="#3E74EC" transform="translate(1522,495)"/>
</svg>
